<?xml version="1.0" encoding="UTF-8" standalone="no"?>
<svg
   xmlns:dc="http://purl.org/dc/elements/1.1/"
   xmlns:cc="http://creativecommons.org/ns#"
   xmlns:rdf="http://www.w3.org/1999/02/22-rdf-syntax-ns#"
   xmlns:svg="http://www.w3.org/2000/svg"
   xmlns="http://www.w3.org/2000/svg"
   xmlns:sodipodi="http://sodipodi.sourceforge.net/DTD/sodipodi-0.dtd"
   xmlns:inkscape="http://www.inkscape.org/namespaces/inkscape"
   width="656pt"
   height="656pt"
   viewBox="0 0 656 656"
   version="1.1"
   id="svg176"
   sodipodi:docname="logo.svg"
   inkscape:version="0.92.2 (5c3e80d, 2017-08-06)">
  <metadata
     id="metadata182">
    <rdf:RDF>
      <cc:Work
         rdf:about="">
        <dc:format>image/svg+xml</dc:format>
        <dc:type
           rdf:resource="http://purl.org/dc/dcmitype/StillImage" />
      </cc:Work>
    </rdf:RDF>
  </metadata>
  <defs
     id="defs180" />
  <sodipodi:namedview
     pagecolor="#ffffff"
     bordercolor="#666666"
     borderopacity="1"
     objecttolerance="10"
     gridtolerance="10"
     guidetolerance="10"
     inkscape:pageopacity="0"
     inkscape:pageshadow="2"
     inkscape:window-width="1440"
     inkscape:window-height="848"
     id="namedview178"
     showgrid="false"
     inkscape:zoom="0.76315793"
     inkscape:cx="164.15231"
     inkscape:cy="348.35928"
     inkscape:window-x="-8"
     inkscape:window-y="-8"
     inkscape:window-maximized="1"
     inkscape:current-layer="svg176" />
  <g
     id="#ffffffff">
    <path
       fill="#ffffff"
       opacity="1.00"
       d=" M 209.32 156.01 C 234.54 155.92 259.77 156.09 284.98 156.01 C 284.58 158.98 284.64 161.98 284.66 164.96 C 284.49 205.25 284.68 245.54 284.53 285.82 C 284.51 296.69 284.40 307.56 284.26 318.42 C 303.07 291.34 322.89 264.98 342.61 238.56 C 362.90 211.07 383.80 184.03 403.39 156.02 C 430.49 156.03 457.60 155.84 484.71 156.25 C 483.64 157.66 482.62 159.10 481.71 160.61 C 480.51 161.79 479.45 163.10 478.71 164.60 C 477.48 165.76 476.41 167.07 475.71 168.61 C 474.44 169.73 473.38 171.05 472.71 172.62 C 469.97 175.26 467.95 178.55 465.69 181.60 C 464.54 182.82 463.50 184.14 462.70 185.60 C 461.52 186.80 460.47 188.12 459.70 189.61 C 458.48 190.77 457.45 192.10 456.71 193.61 C 455.46 194.75 454.39 196.06 453.71 197.61 C 450.99 200.28 448.91 203.52 446.69 206.61 C 445.51 207.79 444.46 209.10 443.71 210.61 C 442.48 211.76 441.38 213.05 440.72 214.61 C 437.98 217.27 435.90 220.51 433.69 223.60 C 432.51 224.80 431.45 226.10 430.70 227.61 C 429.46 228.75 428.39 230.06 427.71 231.61 C 424.97 234.27 422.92 237.53 420.69 240.60 C 419.52 241.80 418.48 243.12 417.70 244.61 C 416.47 245.76 415.41 247.07 414.71 248.61 C 411.01 252.63 407.91 257.19 404.69 261.60 C 403.50 262.78 402.45 264.10 401.71 265.62 C 400.47 266.75 399.38 268.05 398.71 269.61 C 395.99 272.27 393.92 275.53 391.69 278.60 C 390.53 279.80 389.47 281.11 388.71 282.61 C 387.49 283.77 386.42 285.08 385.71 286.61 C 384.45 287.73 383.38 289.05 382.71 290.62 C 379.97 293.25 377.90 296.52 375.70 299.61 C 374.51 300.79 373.45 302.10 372.70 303.61 C 371.47 304.76 370.41 306.07 369.71 307.61 C 365.87 311.49 363.27 316.42 359.46 320.35 C 361.99 323.27 363.85 326.76 366.71 329.38 C 367.37 330.95 368.42 332.28 369.71 333.38 C 370.42 334.91 371.46 336.25 372.70 337.39 C 373.48 338.87 374.52 340.20 375.69 341.40 C 377.92 344.47 379.97 347.74 382.71 350.38 C 383.38 351.94 384.43 353.27 385.70 354.39 C 386.42 355.91 387.48 357.23 388.71 358.39 C 389.47 359.88 390.52 361.20 391.71 362.40 C 392.52 363.86 393.54 365.19 394.70 366.40 C 395.49 367.87 396.51 369.21 397.70 370.39 C 398.45 371.90 399.49 373.23 400.71 374.39 C 401.42 375.92 402.46 377.26 403.72 378.39 C 404.39 379.94 405.43 381.28 406.71 382.39 C 409.92 387.69 413.96 392.47 417.69 397.40 C 418.52 398.86 419.53 400.20 420.71 401.40 C 421.48 402.89 422.49 404.23 423.71 405.39 C 424.44 406.90 425.45 408.26 426.70 409.40 C 430.19 414.50 433.82 419.57 437.70 424.41 C 438.48 425.89 439.49 427.23 440.71 428.40 C 441.43 429.92 442.45 431.26 443.71 432.39 C 445.93 436.35 448.94 439.80 451.69 443.40 C 452.52 444.85 453.52 446.21 454.70 447.40 C 455.45 448.90 456.49 450.23 457.71 451.39 C 458.42 452.92 459.46 454.26 460.71 455.39 C 461.39 456.94 462.43 458.27 463.70 459.40 C 467.14 464.52 470.86 469.53 474.69 474.40 C 475.52 475.85 476.52 477.20 477.70 478.40 C 478.48 479.88 479.49 481.23 480.71 482.40 C 481.46 483.90 482.45 485.26 483.71 486.39 C 484.43 487.91 485.43 489.28 486.71 490.39 C 487.41 491.93 488.44 493.28 489.74 494.37 C 490.22 495.25 490.71 496.13 491.21 497.02 C 461.99 497.59 432.77 497.20 403.55 497.20 C 364.04 440.45 322.90 384.82 284.38 327.37 C 284.44 338.66 284.51 349.94 284.53 361.23 C 284.68 406.48 284.45 451.73 284.70 496.97 C 261.46 497.55 238.21 497.03 214.97 497.34 C 207.65 497.80 200.30 496.87 193.00 497.67 C 192.05 497.60 191.11 497.45 190.20 497.20 C 196.57 497.16 202.94 497.16 209.31 497.22 C 209.43 383.49 209.45 269.75 209.32 156.01 Z"
       id="path161" />
  </g>
  <g
     id="#d69d39ff">
    <path
       fill="#d69d39"
       opacity="1.00"
       d=" M 305.58 0.00 L 355.57 0.00 C 389.89 4.47 424.16 11.54 456.26 24.79 C 465.56 29.04 475.10 32.82 483.99 37.90 C 493.00 43.15 502.00 48.46 510.39 54.66 C 528.57 66.74 545.80 80.35 561.15 95.88 C 592.68 127.82 617.16 166.47 633.72 208.13 C 648.30 242.82 650.97 280.81 656.00 317.68 L 656.00 345.43 C 653.85 363.09 652.13 380.86 648.33 398.28 C 637.55 454.81 609.51 507.41 570.74 549.70 C 565.44 554.75 561.15 560.77 555.49 565.46 C 523.99 595.32 487.26 620.36 446.36 635.42 C 427.11 642.32 407.19 647.26 387.08 650.91 C 375.98 653.13 364.69 654.13 353.54 656.00 L 304.48 656.00 C 289.30 654.44 274.09 652.78 259.16 649.54 C 241.80 646.20 224.92 640.77 208.39 634.60 C 172.73 621.29 139.72 601.05 111.34 575.74 C 94.82 561.47 80.84 544.62 67.32 527.56 C 46.65 500.94 29.10 471.54 18.52 439.40 C 11.63 418.76 6.76 397.46 3.76 375.91 C 1.94 365.10 1.42 354.14 0.00 343.30 L 0.00 299.54 C 1.75 289.05 2.84 278.43 5.03 268.01 C 13.12 223.89 29.23 180.84 54.90 143.87 C 61.36 134.47 68.85 125.84 75.73 116.76 C 104.16 82.27 140.23 54.30 180.04 34.10 C 195.76 26.00 212.35 19.80 229.11 14.24 C 248.88 8.51 269.00 3.59 289.52 1.58 C 294.86 0.90 300.26 0.89 305.58 0.00 M 310.17 27.19 C 301.75 28.01 293.30 28.39 284.90 29.36 C 250.65 32.94 217.35 43.91 187.06 60.17 C 136.45 87.11 94.24 128.85 65.15 178.12 C 43.23 215.41 31.12 258.03 27.90 301.05 C 25.36 333.63 28.14 366.53 34.57 398.53 C 45.59 452.24 74.64 501.29 113.20 539.85 C 139.93 566.52 170.86 589.45 205.70 604.35 C 247.29 622.12 292.82 630.80 338.04 629.06 C 350.13 629.29 362.11 627.39 374.07 625.88 C 417.37 619.91 459.17 603.82 495.37 579.34 C 527.20 557.51 555.36 530.15 577.46 498.47 C 609.91 453.45 626.32 398.14 628.48 343.00 C 629.65 330.00 628.62 316.96 628.06 303.96 C 626.54 282.37 623.41 260.79 617.00 240.06 C 605.18 199.90 584.09 162.70 556.86 130.99 C 531.61 101.46 500.56 77.08 466.38 58.70 C 441.45 45.16 414.07 36.70 386.25 31.58 C 361.12 27.50 335.60 26.16 310.17 27.19 Z"
       id="path164" />
    <path
       fill="#d69d39"
       opacity="1.00"
       d=" M 185.50 156.15 C 193.44 155.97 201.38 156.09 209.32 156.01 C 209.45 269.75 209.43 383.49 209.31 497.22 C 202.94 497.16 196.57 497.16 190.20 497.20 C 188.60 497.14 187.01 496.99 185.43 496.86 C 185.49 383.29 185.37 269.72 185.50 156.15 Z"
       id="path166" />
    <path
       fill="#d69d39"
       opacity="1.00"
       d=" M 381.27 156.10 C 388.64 155.89 396.01 156.03 403.39 156.02 C 383.80 184.03 362.90 211.07 342.61 238.56 C 322.89 264.98 303.07 291.34 284.26 318.42 C 284.40 307.56 284.51 296.69 284.53 285.82 C 316.52 242.39 348.86 199.22 381.27 156.10 Z"
       id="path168" />
    <path
       fill="#d69d39"
       opacity="1.00"
       d=" M 284.38 327.37 C 322.90 384.82 364.04 440.45 403.55 497.20 C 396.44 497.47 389.34 496.93 382.23 496.99 C 359.07 465.30 336.28 433.33 313.28 401.51 C 303.58 388.17 294.30 374.52 284.53 361.23 C 284.51 349.94 284.44 338.66 284.38 327.37 Z"
       id="path170" />
  </g>
  <g
     id="#ae1717ff">
    <path
       d="m 310.17,27.19 c 25.43,-1.03 50.95,0.31 76.08,4.39 27.82,5.12 55.2,13.58 80.13,27.12 34.18,18.38 65.23,42.76 90.48,72.29 27.23,31.71 48.32,68.91 60.14,109.07 6.41,20.73 9.54,42.31 11.06,63.9 0.56,13 1.59,26.04 0.42,39.04 -2.16,55.14 -18.57,110.45 -51.02,155.47 -22.1,31.68 -50.26,59.04 -82.09,80.87 -36.2,24.48 -78,40.57 -121.3,46.54 -11.96,1.51 -23.94,3.41 -36.03,3.18 -45.22,1.74 -90.75,-6.94 -132.34,-24.71 -34.84,-14.9 -65.77,-37.83 -92.5,-64.5 -38.56,-38.56 -67.61,-87.61 -78.63,-141.32 -6.43,-32 -9.21,-64.9 -6.67,-97.48 3.22,-43.02 15.33,-85.64 37.25,-122.93 29.09,-49.27 71.3,-91.01 121.91,-117.95 30.29,-16.26 63.59,-27.23 97.84,-30.81 8.4,-0.97 16.85,-1.35 25.27,-2.17 M 185.5,156.15 c -0.13,113.57 -0.01,227.14 -0.07,340.71 l 29.23597,0.17597 c 18.76649,0.21119 46.70717,0.0797 70.03403,-0.066 -0.25,-45.24 -0.02,-90.49 -0.17,-135.74 97.7,135.76003 0,3e-5 97.7,135.76 7.11,-0.06 14.21,0.48 21.32,0.21 29.22,0 0,0 87.66,-0.18 C 400.71,374.39 397.7,370.39 359.46,320.34997 c 58.24,-75.73997 87.93376,-114.79309 125.25,-164.1 -27.11,-0.41 -54.22,-0.22 -81.32,-0.23 -7.38,0.01 -14.75,-0.13 -22.12,0.08 -32.41,43.12 -64.75,86.29 -96.74,129.72 0.45,-129.81 0,3e-5 0.45,-129.81 -25.21,0.08 -50.44,-0.09 -75.66,0 -7.94,0.08 -15.88,-0.04 -23.82,0.14 z"
       id="path173"
       inkscape:connector-curvature="0"
       style="opacity:1;fill:#ae1717"
       sodipodi:nodetypes="cccccccccccccccccccccccccccccccccccc" />
  </g>
</svg>
