<?xml version="1.0" encoding="UTF-8" ?>
<!DOCTYPE svg PUBLIC "-//W3C//DTD SVG 1.1//EN" "http://www.w3.org/Graphics/SVG/1.1/DTD/svg11.dtd">
<svg width="137pt" height="137pt" viewBox="0 0 137 137" version="1.1" xmlns="http://www.w3.org/2000/svg">
<g id="#f34c13ff">
<path fill="#f34c13" opacity="1.00" d=" M 54.51 1.57 C 71.99 -2.05 90.84 1.45 105.74 11.32 C 117.53 19.21 126.99 30.70 131.91 44.06 C 137.49 58.64 137.87 75.15 132.89 89.96 C 127.63 106.38 115.67 120.41 100.53 128.59 C 87.07 135.83 71.14 138.26 56.11 135.54 C 42.37 133.13 29.49 126.27 19.77 116.26 C 7.41 103.89 0.29 86.48 0.31 69.00 C 0.00 51.66 6.69 34.26 18.66 21.68 C 28.10 11.42 40.87 4.37 54.51 1.57 M 64.82 38.89 C 64.76 44.69 61.62 50.86 55.97 52.95 C 53.03 52.21 50.07 51.42 47.00 51.72 C 43.39 51.31 39.69 54.29 39.68 57.98 C 39.62 68.67 39.70 79.36 39.64 90.05 C 39.28 93.11 41.33 96.22 44.29 97.07 C 46.86 97.36 49.47 97.28 52.05 97.17 C 54.30 97.19 55.65 95.16 57.10 93.76 C 67.60 97.29 78.78 97.69 89.75 97.04 C 93.87 95.93 96.08 91.47 95.59 87.41 C 98.04 84.55 100.03 80.55 98.69 76.76 C 100.83 73.64 102.34 69.69 100.60 66.01 C 103.59 61.54 102.12 54.38 96.54 52.84 C 91.19 51.91 85.71 52.31 80.30 52.05 C 80.80 46.94 81.24 41.30 78.26 36.80 C 76.43 34.01 73.57 30.86 69.87 31.51 C 66.48 32.08 64.78 35.72 64.82 38.89 Z" />
<path fill="#f34c13" opacity="1.00" d=" M 68.85 40.98 C 69.36 39.25 68.49 36.05 71.03 35.81 C 73.99 36.93 75.41 40.11 76.16 42.96 C 77.12 47.52 75.97 52.17 74.45 56.47 C 81.27 56.51 88.15 56.08 94.93 56.92 C 97.91 57.07 98.20 60.33 97.66 62.59 C 95.78 65.26 92.01 63.78 89.27 64.21 C 89.27 64.77 89.27 65.90 89.27 66.46 C 91.45 66.63 93.78 66.14 95.86 66.94 C 98.47 69.05 96.63 72.87 94.36 74.48 C 91.98 74.97 86.91 72.73 87.12 76.64 C 89.59 76.90 92.29 76.31 94.55 77.59 C 95.26 79.91 94.40 82.95 92.19 84.14 C 89.90 84.82 87.46 84.43 85.12 84.63 C 85.07 88.75 90.45 85.36 91.86 88.75 C 90.98 89.90 90.84 91.82 89.40 92.44 C 77.99 93.39 66.20 92.68 55.47 88.38 C 55.84 78.34 55.13 68.25 55.79 58.25 C 62.74 55.25 68.52 48.82 68.85 40.98 Z" />
<path fill="#f34c13" opacity="1.00" d=" M 45.31 56.48 C 47.82 56.60 51.13 55.51 53.11 57.28 C 53.41 68.80 53.37 80.37 53.13 91.89 C 50.83 93.50 47.23 92.73 44.50 92.43 C 43.90 90.70 43.98 88.84 43.92 87.04 C 43.94 78.04 43.93 69.05 43.91 60.05 C 44.07 58.93 43.72 56.58 45.31 56.48 M 46.08 89.80 C 47.26 91.71 49.71 90.65 51.44 90.40 C 51.27 88.72 52.48 86.07 50.45 85.13 C 47.74 82.39 43.76 87.31 46.08 89.80 Z" />
<path fill="#f34c13" opacity="1.00" d=" M 48.38 86.63 C 49.99 86.26 50.24 89.05 48.94 89.49 C 47.48 89.56 46.90 87.08 48.38 86.63 Z" />
</g>
</svg>
