<?xml version="1.0" encoding="UTF-8" ?>
<!DOCTYPE svg PUBLIC "-//W3C//DTD SVG 1.1//EN" "http://www.w3.org/Graphics/SVG/1.1/DTD/svg11.dtd">
<svg width="137pt" height="137pt" viewBox="0 0 137 137" version="1.1" xmlns="http://www.w3.org/2000/svg">
<g id="#f34c13ff">
<path fill="#f34c13" opacity="1.00" d=" M 53.60 1.77 C 68.25 -1.28 84.00 0.17 97.53 6.75 C 112.58 13.80 124.80 26.59 131.24 41.89 C 137.57 56.73 138.29 73.85 133.41 89.21 C 128.62 104.31 118.37 117.59 105.00 126.07 C 93.79 133.28 80.39 137.04 67.06 136.68 C 49.85 136.56 32.90 129.37 20.66 117.33 C 7.71 104.81 0.04 86.97 0.11 68.93 C -0.11 55.86 3.71 42.81 10.74 31.81 C 20.27 16.61 36.09 5.62 53.60 1.77 M 56.48 37.53 C 50.01 46.99 51.82 60.53 58.89 69.18 C 60.17 70.41 59.69 72.30 59.88 73.88 C 52.72 76.91 42.89 75.93 38.19 83.16 C 36.67 87.35 37.13 92.15 37.74 96.51 C 38.07 99.11 41.12 99.04 43.08 99.51 C 56.98 101.71 71.16 101.61 85.14 100.32 C 83.43 97.78 81.69 95.13 81.19 92.04 C 79.76 86.19 82.43 80.27 86.12 75.82 C 83.45 75.27 80.79 74.69 78.12 74.15 C 78.03 72.71 77.94 71.28 77.85 69.84 C 84.45 61.18 86.38 48.50 81.38 38.66 C 76.68 29.48 62.12 29.12 56.48 37.53 M 95.17 75.21 C 88.94 76.45 84.29 82.69 84.57 88.99 C 84.20 96.65 91.38 103.90 99.14 102.96 C 106.62 102.74 112.52 95.17 111.63 87.88 C 111.52 79.77 103.13 73.12 95.17 75.21 Z" />
<path fill="#f34c13" opacity="1.00" d=" M 97.06 90.97 C 99.39 87.30 101.67 83.60 103.91 79.88 C 104.94 80.64 105.97 81.40 107.00 82.17 C 103.70 87.81 100.25 93.36 96.99 99.03 C 94.72 95.30 92.42 91.59 90.00 87.96 C 91.03 87.07 92.06 86.18 93.09 85.29 C 94.40 87.19 95.73 89.08 97.06 90.97 Z" />
</g>
</svg>
