<?xml version="1.0" encoding="UTF-8" ?>
<!DOCTYPE svg PUBLIC "-//W3C//DTD SVG 1.1//EN" "http://www.w3.org/Graphics/SVG/1.1/DTD/svg11.dtd">
<svg width="137pt" height="137pt" viewBox="0 0 137 137" version="1.1" xmlns="http://www.w3.org/2000/svg">
<g id="#f34c13ff">
<path fill="#f34c13" opacity="1.00" d=" M 0.00 0.00 L 0.25 0.00 C 0.19 0.06 0.06 0.19 0.00 0.25 L 0.00 0.00 Z" />
<path fill="#f34c13" opacity="1.00" d=" M 54.40 1.58 C 66.49 -0.35 79.30 -0.29 90.91 4.02 C 109.81 10.56 125.47 25.87 132.32 44.68 C 136.49 55.25 137.20 66.84 135.97 78.06 C 133.41 96.60 122.79 113.79 107.42 124.45 C 96.00 132.52 82.00 136.90 68.00 136.55 C 52.83 136.99 37.85 131.33 25.99 122.02 C 13.35 112.15 4.61 97.61 1.32 81.96 C 0.02 73.70 0.09 65.24 1.00 56.95 C 2.91 45.42 8.04 34.47 15.36 25.37 C 25.09 13.24 39.22 4.83 54.40 1.58 M 73.63 37.53 C 66.25 40.46 60.86 47.99 60.79 55.98 C 60.77 58.86 61.67 61.67 61.66 64.56 C 53.99 72.58 45.97 80.28 38.19 88.20 C 35.19 90.87 36.14 95.30 36.34 98.84 C 37.08 102.80 42.07 102.10 45.07 102.09 C 48.66 102.38 50.56 98.31 54.03 98.23 C 56.11 97.76 58.78 98.17 60.24 96.26 C 60.92 94.32 60.92 92.23 61.34 90.23 C 63.73 89.42 67.08 90.10 68.58 87.63 C 69.53 84.75 68.42 81.08 70.84 78.82 C 71.96 77.82 73.07 76.10 74.81 76.47 C 78.99 77.10 83.35 77.94 87.46 76.45 C 95.88 74.08 101.99 65.73 101.96 57.02 C 102.39 48.74 96.96 40.71 89.36 37.60 C 84.40 35.51 78.62 35.52 73.63 37.53 Z" />
<path fill="#f34c13" opacity="1.00" d=" M 68.54 46.51 C 73.58 39.81 84.03 38.21 90.79 43.23 C 96.83 47.39 99.51 55.79 96.64 62.61 C 94.35 68.97 87.71 73.30 80.99 73.10 C 78.28 72.89 75.76 71.80 73.12 71.28 C 70.46 72.74 68.51 75.22 66.48 77.43 C 64.49 79.39 65.15 82.38 64.61 84.88 C 62.56 85.45 60.32 85.39 58.39 86.33 C 56.15 87.96 57.04 91.11 56.48 93.47 C 53.49 93.77 50.17 93.55 47.95 95.96 C 45.97 98.13 42.97 98.16 40.27 97.73 C 40.11 95.10 39.92 92.06 42.22 90.24 C 49.74 82.76 57.11 75.12 64.74 67.75 C 65.84 66.59 67.62 65.22 66.53 63.44 C 64.35 57.92 64.66 51.23 68.54 46.51 M 83.28 44.39 C 79.76 45.34 75.14 50.03 78.55 53.47 C 80.98 56.29 83.53 59.48 87.12 60.79 C 90.34 60.38 93.37 57.36 93.81 54.15 C 92.44 50.83 89.58 48.38 86.96 46.04 C 85.87 45.36 84.69 43.93 83.28 44.39 Z" />
<path fill="#f34c13" opacity="1.00" d=" M 79.63 50.97 C 79.97 48.91 81.70 46.74 83.93 46.77 C 86.90 48.56 89.40 51.13 91.26 54.05 C 91.11 56.17 88.73 59.02 86.49 57.49 C 83.81 55.82 81.15 53.81 79.63 50.97 Z" />
</g>
</svg>
