<?xml version="1.0" encoding="UTF-8" ?>
<!DOCTYPE svg PUBLIC "-//W3C//DTD SVG 1.1//EN" "http://www.w3.org/Graphics/SVG/1.1/DTD/svg11.dtd">
<svg width="137pt" height="137pt" viewBox="0 0 137 137" version="1.1" xmlns="http://www.w3.org/2000/svg">
<g id="#f34c13ff">
<path fill="#f34c13" opacity="1.00" d=" M 55.52 1.81 C 69.93 -0.95 85.24 1.03 98.39 7.58 C 111.83 14.09 122.91 25.26 129.44 38.67 C 136.34 52.60 138.19 68.96 134.58 84.08 C 130.75 100.70 120.34 115.68 106.12 125.09 C 92.05 134.61 74.30 138.42 57.56 135.65 C 39.06 132.80 22.12 121.74 11.82 106.16 C 4.13 94.70 0.11 80.82 0.49 67.02 C 0.78 49.92 7.92 33.08 19.95 20.94 C 29.50 11.15 42.10 4.44 55.52 1.81 M 59.41 38.78 C 57.77 40.03 56.75 41.90 55.29 43.34 C 53.38 45.33 49.95 45.09 48.46 47.58 C 46.71 50.64 48.03 54.77 45.60 57.53 C 44.91 58.61 43.82 59.54 43.69 60.89 C 43.17 65.11 47.93 67.73 47.59 71.90 C 47.81 73.39 47.25 75.26 48.50 76.41 C 50.31 78.17 52.99 78.56 55.05 79.97 C 56.93 81.52 58.08 83.84 60.15 85.18 C 62.78 85.84 65.38 84.70 67.98 84.42 C 70.75 84.37 73.42 85.80 76.22 85.27 C 78.85 84.04 79.92 80.94 82.45 79.57 C 84.75 78.22 87.64 77.47 89.10 75.05 C 89.57 72.93 89.20 70.70 89.75 68.60 C 90.72 66.27 92.13 64.15 93.36 61.96 C 92.69 59.69 91.59 57.58 90.38 55.56 C 88.75 53.15 90.12 49.90 88.45 47.52 C 87.43 45.69 85.25 45.28 83.50 44.47 C 80.66 43.52 79.56 40.39 77.16 38.84 C 73.82 37.29 70.33 40.14 66.92 39.07 C 64.47 38.69 61.81 37.52 59.41 38.78 M 53.32 83.11 C 50.71 89.77 47.36 96.20 45.42 103.10 C 48.80 102.41 52.13 101.49 55.43 100.49 C 57.23 103.23 58.62 106.21 60.39 108.97 C 60.66 108.97 61.20 108.97 61.47 108.96 C 64.67 101.84 67.66 94.62 70.76 87.46 C 66.61 86.52 61.92 90.16 58.33 86.82 C 56.55 85.77 55.67 82.65 53.32 83.11 M 73.51 88.61 C 72.69 91.06 70.84 93.33 70.83 95.94 C 72.55 100.22 74.32 104.50 76.29 108.68 C 76.54 108.76 77.02 108.94 77.27 109.03 C 79.14 106.21 80.74 103.23 82.60 100.40 C 85.91 101.52 89.23 102.61 92.61 103.47 C 90.29 96.19 87.25 89.15 84.29 82.11 C 81.61 85.54 78.34 89.21 73.51 88.61 Z" />
<path fill="#f34c13" opacity="1.00" d=" M 64.47 45.72 C 74.03 43.24 84.55 51.01 84.73 60.93 C 85.68 70.23 77.31 79.05 67.95 78.54 C 58.83 78.78 50.79 70.16 51.58 61.08 C 51.80 53.81 57.43 47.30 64.47 45.72 M 64.32 49.51 C 59.90 50.75 56.40 54.60 55.40 59.06 C 53.50 66.38 59.27 74.56 66.89 74.86 C 74.60 75.92 82.02 68.66 80.95 60.91 C 80.80 52.84 71.87 47.03 64.32 49.51 Z" />
</g>
</svg>
