<?xml version="1.0" encoding="UTF-8" ?>
<!DOCTYPE svg PUBLIC "-//W3C//DTD SVG 1.1//EN" "http://www.w3.org/Graphics/SVG/1.1/DTD/svg11.dtd">
<svg width="136pt" height="136pt" viewBox="0 0 136 136" version="1.1" xmlns="http://www.w3.org/2000/svg">
<g id="#f34c13ff">
<path fill="#f34c13" opacity="1.00" d=" M 16.34 24.41 C 29.49 8.42 50.36 -0.61 70.98 0.07 C 81.99 0.99 92.96 3.94 102.44 9.74 C 117.44 18.67 128.88 33.51 133.35 50.41 C 134.68 54.81 134.93 59.43 136.00 63.89 L 136.00 72.38 C 135.03 76.48 134.69 80.70 133.61 84.77 C 128.96 103.22 116.15 119.46 99.22 128.16 C 85.74 135.17 69.82 137.94 54.90 134.59 C 35.88 130.86 18.80 118.55 9.24 101.69 C 3.88 92.77 1.56 82.54 0.00 72.37 L 0.00 63.62 C 1.08 58.99 1.41 54.21 2.84 49.66 C 5.44 40.39 10.08 31.71 16.34 24.41 M 57.64 21.90 C 46.91 24.37 37.28 30.98 30.80 39.83 C 22.83 50.92 19.78 65.50 23.08 78.80 C 25.90 91.26 34.43 102.05 45.37 108.48 C 56.40 115.00 70.19 116.49 82.41 112.69 C 94.13 109.20 104.19 100.88 110.13 90.24 C 116.20 79.17 117.34 65.62 113.59 53.60 C 109.90 41.22 100.66 30.64 88.99 25.16 C 79.32 20.42 68.07 19.37 57.64 21.90 Z" />
<path fill="#f34c13" opacity="1.00" d=" M 61.56 31.85 C 77.58 28.30 95.08 37.32 101.79 52.21 C 107.03 63.29 106.01 76.98 99.27 87.20 C 95.20 94.05 88.45 98.99 81.11 101.85 C 70.82 105.77 58.84 104.33 49.57 98.50 C 39.51 92.25 32.76 80.87 32.36 69.00 C 31.27 51.65 44.54 35.04 61.56 31.85 M 67.39 37.44 C 65.90 38.22 65.10 40.31 66.24 41.69 C 67.57 44.01 71.89 42.86 71.54 40.04 C 71.61 37.87 69.27 36.55 67.39 37.44 M 50.04 45.07 C 46.35 45.80 44.87 50.87 47.39 53.54 C 52.04 58.59 56.69 63.64 61.29 68.73 C 63.14 70.71 64.93 73.62 68.03 73.36 C 73.37 73.41 78.73 73.58 84.07 73.27 C 88.91 72.06 89.14 63.79 84.00 62.89 C 79.43 62.43 74.83 62.75 70.25 62.74 C 65.52 57.78 61.05 52.59 56.43 47.53 C 54.93 45.67 52.51 44.10 50.04 45.07 M 85.07 47.92 C 85.16 51.05 90.56 51.12 90.54 47.98 C 91.05 46.21 89.12 45.30 88.07 44.34 C 86.67 45.13 84.64 45.89 85.07 47.92 M 38.38 67.94 C 38.54 69.34 40.04 69.76 40.98 70.52 C 43.23 70.06 44.76 67.57 43.27 65.55 C 41.78 63.16 37.48 65.34 38.38 67.94 M 93.57 67.18 C 93.33 68.80 94.87 69.64 95.91 70.52 C 97.79 70.09 100.29 68.05 98.69 65.99 C 97.77 63.40 93.50 64.61 93.57 67.18 M 49.63 84.75 C 47.98 84.96 46.67 86.33 47.04 88.07 C 47.17 90.29 50.15 91.20 51.61 89.63 C 53.57 88.19 52.10 84.38 49.63 84.75 M 86.14 87.80 C 86.87 90.53 91.63 89.77 91.42 87.00 C 91.91 85.24 90.06 84.43 88.98 83.54 C 87.33 84.10 84.82 85.80 86.14 87.80 M 67.46 92.47 C 63.96 93.74 66.48 99.54 69.75 97.60 C 72.77 96.20 70.65 91.04 67.46 92.47 Z" />
</g>
</svg>
