<?xml version="1.0" encoding="UTF-8" ?>
<!DOCTYPE svg PUBLIC "-//W3C//DTD SVG 1.1//EN" "http://www.w3.org/Graphics/SVG/1.1/DTD/svg11.dtd">
<svg width="90pt" height="102pt" viewBox="0 0 90 102" version="1.1" xmlns="http://www.w3.org/2000/svg">
<g id="#f8dfceff">
<path fill="#f8dfce" opacity="1.00" d=" M 33.90 11.32 C 37.81 7.94 41.24 4.03 44.98 0.46 C 48.72 4.03 52.15 7.94 56.07 11.31 C 61.20 11.62 66.36 11.35 71.50 11.44 C 71.51 16.60 71.47 21.75 71.53 26.91 C 75.10 30.67 78.84 34.26 82.48 37.95 C 78.91 41.73 74.91 45.13 71.60 49.14 C 71.34 51.94 71.56 54.76 71.55 57.57 C 71.56 59.83 71.53 62.08 71.51 64.34 C 66.37 64.74 61.21 64.17 56.08 64.64 C 53.96 66.04 52.36 68.05 50.58 69.83 C 48.74 71.73 46.86 73.58 44.98 75.45 C 43.11 73.57 41.22 71.72 39.38 69.81 C 37.52 67.96 35.86 65.85 33.65 64.41 C 28.58 64.03 23.48 64.33 18.40 64.42 C 18.39 62.22 18.37 60.01 18.41 57.81 C 18.43 54.91 18.62 52.00 18.36 49.11 C 15.04 45.12 11.06 41.72 7.49 37.95 C 11.12 34.26 14.86 30.68 18.43 26.92 C 18.50 21.76 18.46 16.60 18.47 11.44 C 23.61 11.35 28.76 11.61 33.90 11.32 M 40.25 23.32 C 30.97 25.99 26.74 38.03 31.94 46.02 C 35.68 52.67 44.67 54.93 51.35 51.49 C 58.68 48.31 62.05 38.75 58.51 31.62 C 55.57 24.78 47.24 21.60 40.25 23.32 Z" />
</g>
<g id="#d1a89aff">
<path fill="#d1a89a" opacity="1.00" d=" M 40.25 23.32 C 47.24 21.60 55.57 24.78 58.51 31.62 C 62.05 38.75 58.68 48.31 51.35 51.49 C 44.67 54.93 35.68 52.67 31.94 46.02 C 26.74 38.03 30.97 25.99 40.25 23.32 Z" />
</g>
<g id="#d35b32ff">
<path fill="#d35b32" opacity="1.00" d=" M 18.41 57.81 C 18.37 60.01 18.39 62.22 18.40 64.42 C 23.48 64.33 28.58 64.03 33.65 64.41 C 35.86 65.85 37.52 67.96 39.38 69.81 C 33.18 80.31 27.19 90.93 21.01 101.44 C 19.50 96.00 18.10 90.53 16.65 85.07 C 11.17 86.52 5.71 88.05 0.24 89.50 C 6.24 78.91 12.55 68.49 18.41 57.81 Z" />
<path fill="#d35b32" opacity="1.00" d=" M 71.51 64.34 C 71.53 62.08 71.56 59.83 71.55 57.57 C 77.30 68.40 83.71 78.86 89.74 89.54 C 84.26 88.09 78.81 86.58 73.34 85.11 C 71.90 90.50 70.54 95.90 69.04 101.26 C 62.59 90.97 56.87 80.22 50.58 69.83 C 52.36 68.05 53.96 66.04 56.08 64.64 C 61.21 64.17 66.37 64.74 71.51 64.34 Z" />
</g>
</svg>
