<?xml version="1.0" encoding="UTF-8" ?>
<!DOCTYPE svg PUBLIC "-//W3C//DTD SVG 1.1//EN" "http://www.w3.org/Graphics/SVG/1.1/DTD/svg11.dtd">
<svg width="96pt" height="102pt" viewBox="0 0 96 102" version="1.1" xmlns="http://www.w3.org/2000/svg">
<g id="#d55c33ff">
<path fill="#d55c33" opacity="1.00" d=" M 0.00 16.46 C 9.72 20.03 19.43 23.65 29.23 27.04 C 30.57 34.40 31.27 41.86 32.61 49.22 C 33.29 42.24 32.81 35.23 32.98 28.24 C 32.99 27.55 33.01 26.18 33.02 25.49 C 43.01 25.51 52.99 25.50 62.97 25.50 C 62.99 26.25 63.02 27.74 63.03 28.49 C 74.01 24.46 85.04 20.55 96.00 16.45 L 96.00 64.54 C 86.30 60.97 76.60 57.36 66.83 53.98 C 65.39 46.63 64.64 39.17 63.45 31.78 C 62.64 38.74 63.22 45.77 63.02 52.76 C 63.01 53.45 62.99 54.82 62.98 55.51 C 52.99 55.49 43.01 55.50 33.03 55.50 C 33.01 54.76 32.98 53.26 32.97 52.51 C 21.98 56.54 10.96 60.45 0.00 64.55 L 0.00 16.46 Z" />
<path fill="#d55c33" opacity="1.00" d=" M 44.25 68.29 C 50.08 65.32 57.64 70.53 56.99 77.01 C 56.89 83.71 48.37 87.99 42.97 83.97 C 37.18 80.46 37.97 70.81 44.25 68.29 Z" />
</g>
<g id="#a64423fa">
<path fill="#a64423" opacity="0.98" d=" M 29.23 27.04 C 30.48 27.43 31.73 27.83 32.98 28.24 C 32.81 35.23 33.29 42.24 32.61 49.22 C 31.27 41.86 30.57 34.40 29.23 27.04 Z" />
<path fill="#a64423" opacity="0.98" d=" M 63.02 52.76 C 63.22 45.77 62.64 38.74 63.45 31.78 C 64.64 39.17 65.39 46.63 66.83 53.98 C 65.56 53.58 64.29 53.17 63.02 52.76 Z" />
</g>
</svg>
