<?xml version="1.0" encoding="UTF-8" ?>
<!DOCTYPE svg PUBLIC "-//W3C//DTD SVG 1.1//EN" "http://www.w3.org/Graphics/SVG/1.1/DTD/svg11.dtd">
<svg width="81pt" height="102pt" viewBox="0 0 81 102" version="1.1" xmlns="http://www.w3.org/2000/svg">
<g id="#d55c33ff">
<path fill="#d55c33" opacity="1.00" d=" M 0.00 53.61 C 14.69 39.16 29.07 24.33 43.84 10.00 C 54.34 10.27 64.60 12.97 75.05 13.91 C 76.70 14.72 76.06 16.69 76.41 18.15 C 77.78 27.48 79.13 36.87 80.88 46.05 C 80.46 46.33 79.62 46.88 79.20 47.16 C 66.15 60.11 53.19 73.16 40.17 86.15 C 38.64 87.68 36.91 89.09 35.99 91.11 C 34.75 89.33 33.15 87.84 31.64 86.30 C 21.07 75.80 10.62 65.18 0.00 54.73 L 0.00 53.61 M 60.36 22.46 C 57.97 24.13 57.61 28.13 59.91 30.00 C 62.53 33.32 68.35 31.11 68.69 27.07 C 69.39 22.81 63.58 19.33 60.36 22.46 Z" />
</g>
</svg>
