<?xml version="1.0" encoding="UTF-8" ?>
<!DOCTYPE svg PUBLIC "-//W3C//DTD SVG 1.1//EN" "http://www.w3.org/Graphics/SVG/1.1/DTD/svg11.dtd">
<svg width="72pt" height="102pt" viewBox="0 0 72 102" version="1.1" xmlns="http://www.w3.org/2000/svg">
<g id="#f8dfceff">
<path fill="#f8dfce" opacity="1.00" d=" M 18.18 21.28 C 23.90 15.01 30.04 9.12 36.00 3.07 C 41.95 9.12 48.10 15.01 53.81 21.28 C 54.28 31.15 53.86 41.07 54.00 50.96 C 54.00 60.01 53.97 69.05 54.00 78.10 C 42.20 77.79 30.37 77.72 18.57 78.35 L 17.86 78.37 C 18.20 69.24 17.92 60.10 18.00 50.96 C 18.14 41.07 17.72 31.15 18.18 21.28 M 34.35 32.43 C 28.39 33.43 25.61 41.70 30.00 45.96 C 33.94 50.99 43.06 48.04 43.79 41.83 C 44.95 36.42 39.54 31.74 34.35 32.43 Z" />
</g>
<g id="#d55c33ff">
<path fill="#d55c33" opacity="1.00" d=" M 34.35 32.43 C 39.54 31.74 44.95 36.42 43.79 41.83 C 43.06 48.04 33.94 50.99 30.00 45.96 C 25.61 41.70 28.39 33.43 34.35 32.43 Z" />
<path fill="#d55c33" opacity="1.00" d=" M 0.00 68.92 C 6.04 62.97 12.04 56.99 18.00 50.96 C 17.92 60.10 18.20 69.24 17.86 78.37 C 11.72 80.85 5.89 84.08 0.00 87.09 L 0.00 68.92 Z" />
<path fill="#d55c33" opacity="1.00" d=" M 54.00 50.96 C 59.97 56.93 65.85 63.00 72.00 68.79 L 72.00 87.09 C 66.09 83.93 60.04 81.02 54.00 78.10 C 53.97 69.05 54.00 60.01 54.00 50.96 Z" />
<path fill="#d55c33" opacity="1.00" d=" M 31.61 90.00 C 34.54 89.98 37.46 89.98 40.39 90.00 C 40.55 93.00 40.55 96.00 40.39 99.00 C 37.46 99.02 34.54 99.02 31.61 99.00 C 31.44 96.00 31.44 93.00 31.61 90.00 Z" />
</g>
<g id="#d1a99bff">
<path fill="#d1a99b" opacity="1.00" d=" M 18.57 78.35 C 30.37 77.72 42.20 77.79 54.00 78.10 C 52.00 81.08 49.98 84.04 47.92 86.98 C 39.97 87.03 32.03 87.02 24.08 86.99 C 22.06 84.23 20.15 81.38 18.57 78.35 Z" />
</g>
</svg>
