<?xml version="1.0" encoding="UTF-8" ?>
<!DOCTYPE svg PUBLIC "-//W3C//DTD SVG 1.1//EN" "http://www.w3.org/Graphics/SVG/1.1/DTD/svg11.dtd">
<svg width="100pt" height="102pt" viewBox="0 0 100 102" version="1.1" xmlns="http://www.w3.org/2000/svg">
<g id="#f8dfceff">
<path fill="#f8dfce" opacity="1.00" d=" M 14.00 3.00 C 38.00 3.00 62.00 3.00 86.00 3.00 C 86.00 6.00 86.00 9.00 86.00 12.00 C 84.00 12.00 82.01 12.00 80.01 12.02 C 64.23 12.11 48.45 11.99 32.68 12.04 C 28.46 11.95 24.23 12.01 20.01 12.00 C 18.01 12.00 16.00 12.00 14.00 12.00 C 14.00 9.00 14.00 6.00 14.00 3.00 Z" />
<path fill="#f8dfce" opacity="1.00" d=" M 0.50 19.18 C 6.95 19.16 13.40 19.26 19.85 19.11 C 19.63 22.16 19.63 25.23 19.84 28.28 C 16.40 28.19 12.95 28.17 9.51 28.18 C 9.72 32.90 8.49 38.33 11.65 42.36 C 13.52 45.02 16.70 46.20 19.84 46.48 C 19.62 49.55 19.44 52.66 20.14 55.68 C 10.79 55.52 1.96 48.37 0.75 38.96 C 0.20 32.39 0.64 25.77 0.50 19.18 Z" />
<path fill="#f8dfce" opacity="1.00" d=" M 80.15 19.11 C 86.60 19.26 93.05 19.16 99.50 19.19 C 99.28 26.13 100.00 33.13 99.05 40.03 C 97.38 48.99 88.92 55.12 80.13 55.90 L 80.19 54.97 C 80.45 52.15 80.31 49.31 80.16 46.49 C 83.06 46.16 86.05 45.24 87.93 42.85 C 91.55 38.85 90.31 33.09 90.49 28.18 C 87.05 28.17 83.60 28.19 80.16 28.28 C 80.36 25.23 80.37 22.16 80.15 19.11 Z" />
<path fill="#f8dfce" opacity="1.00" d=" M 42.09 80.07 C 47.15 81.92 52.86 81.93 57.91 80.07 C 58.01 83.38 58.04 86.69 57.92 90.00 C 63.28 90.00 68.64 90.00 74.00 90.00 C 74.00 93.00 74.00 96.00 74.00 99.00 C 58.00 99.00 42.00 99.00 26.00 99.00 C 26.00 96.00 26.00 93.00 26.00 90.00 C 31.33 90.00 36.67 90.00 42.00 90.00 C 41.98 86.69 42.00 83.38 42.09 80.07 Z" />
</g>
<g id="#d55c33ff">
<path fill="#d55c33" opacity="1.00" d=" M 20.01 12.00 C 24.23 12.01 28.46 11.95 32.68 12.04 C 48.39 13.69 64.18 14.19 79.95 14.95 C 80.00 16.33 80.07 17.72 80.15 19.11 C 80.37 22.16 80.36 25.23 80.16 28.28 C 79.89 34.34 79.91 40.42 80.16 46.49 C 80.31 49.31 80.45 52.15 80.19 54.97 C 78.31 61.95 75.37 68.95 69.63 73.65 C 66.27 76.66 62.13 78.58 57.91 80.07 C 52.86 81.93 47.15 81.92 42.09 80.07 C 30.86 76.88 22.27 67.10 20.14 55.68 C 19.44 52.66 19.62 49.55 19.84 46.48 C 20.10 40.42 20.11 34.34 19.84 28.28 C 19.63 25.23 19.63 22.16 19.85 19.11 C 20.02 16.74 20.02 14.37 20.01 12.00 M 49.22 23.47 C 47.31 26.36 46.21 29.70 44.64 32.78 C 40.72 33.40 36.79 33.93 32.87 34.56 C 34.76 38.12 38.22 40.41 40.96 43.27 C 40.39 47.28 39.65 51.27 39.20 55.31 C 42.87 53.67 46.42 51.75 50.01 49.93 C 53.58 51.76 57.11 53.70 60.80 55.29 C 60.34 51.27 59.58 47.29 59.04 43.28 C 61.77 40.40 65.19 38.09 67.17 34.59 C 63.24 33.92 59.30 33.41 55.37 32.78 C 53.84 29.54 52.23 26.35 50.83 23.05 C 50.43 23.15 49.62 23.36 49.22 23.47 Z" />
</g>
<g id="#a84523ff">
<path fill="#a84523" opacity="1.00" d=" M 32.68 12.04 C 48.45 11.99 64.23 12.11 80.01 12.02 C 80.00 12.75 79.97 14.21 79.95 14.95 C 64.18 14.19 48.39 13.69 32.68 12.04 Z" />
</g>
<g id="#e0c4bbff">
<path fill="#e0c4bb" opacity="1.00" d=" M 49.22 23.47 C 49.62 23.36 50.43 23.15 50.83 23.05 C 52.23 26.35 53.84 29.54 55.37 32.78 C 59.30 33.41 63.24 33.92 67.17 34.59 C 65.19 38.09 61.77 40.40 59.04 43.28 C 59.58 47.29 60.34 51.27 60.80 55.29 C 57.11 53.70 53.58 51.76 50.01 49.93 C 46.42 51.75 42.87 53.67 39.20 55.31 C 39.65 51.27 40.39 47.28 40.96 43.27 C 38.22 40.41 34.76 38.12 32.87 34.56 C 36.79 33.93 40.72 33.40 44.64 32.78 C 46.21 29.70 47.31 26.36 49.22 23.47 Z" />
</g>
</svg>
