<?xml version="1.0" encoding="UTF-8" ?>
<!DOCTYPE svg PUBLIC "-//W3C//DTD SVG 1.1//EN" "http://www.w3.org/Graphics/SVG/1.1/DTD/svg11.dtd">
<svg width="96pt" height="102pt" viewBox="0 0 96 102" version="1.1" xmlns="http://www.w3.org/2000/svg">
<g id="#d55c33ff">
<path fill="#d55c33" opacity="1.00" d=" M 13.56 17.55 C 23.15 7.51 37.23 2.28 51.04 3.04 C 49.84 12.91 49.22 22.84 48.13 32.72 C 41.77 33.42 35.28 36.34 32.26 42.28 C 27.07 51.04 31.24 63.50 40.63 67.41 C 47.43 70.73 55.39 68.47 60.99 63.87 C 68.58 70.35 74.45 78.65 82.65 84.42 C 73.83 93.26 61.61 98.77 49.06 98.99 C 34.46 99.41 19.89 92.64 10.74 81.26 C 4.68 73.94 1.29 64.75 0.00 55.41 L 0.00 46.60 C 1.41 35.83 5.84 25.31 13.56 17.55 Z" />
</g>
<g id="#d1a99bff">
<path fill="#d1a99b" opacity="1.00" d=" M 51.04 3.04 C 60.77 3.37 70.20 7.24 77.83 13.20 C 87.92 21.03 94.31 33.03 96.00 45.62 L 96.00 53.98 C 86.13 52.74 76.25 51.46 66.31 50.94 C 65.27 46.46 64.09 41.66 60.63 38.37 C 57.36 34.93 52.60 33.71 48.13 32.72 C 49.22 22.84 49.84 12.91 51.04 3.04 Z" />
</g>
<g id="#f8dfceff">
<path fill="#f8dfce" opacity="1.00" d=" M 66.31 50.94 C 76.25 51.46 86.13 52.74 96.00 53.98 L 96.00 58.34 C 93.64 67.90 89.70 77.34 82.65 84.42 C 74.45 78.65 68.58 70.35 60.99 63.87 C 63.73 60.03 65.45 55.57 66.31 50.94 Z" />
</g>
</svg>
