<?xml version="1.0" encoding="UTF-8" ?>
<!DOCTYPE svg PUBLIC "-//W3C//DTD SVG 1.1//EN" "http://www.w3.org/Graphics/SVG/1.1/DTD/svg11.dtd">
<svg width="941pt" height="192pt" viewBox="0 0 941 192" version="1.1" xmlns="http://www.w3.org/2000/svg">
<g id="#d5ab9dff">
<path fill="#d5ab9d" opacity="1.00" d=" M 207.71 0.00 L 217.11 0.00 C 237.51 1.09 257.55 8.64 273.31 21.71 C 292.38 37.25 305.08 60.37 307.76 84.85 C 311.41 115.79 299.26 148.63 275.11 168.61 C 296.99 168.31 318.88 168.67 340.75 168.43 C 341.28 175.96 340.76 183.52 341.16 191.05 C 302.77 190.92 264.38 191.02 225.99 191.00 C 216.84 191.66 207.66 191.82 198.50 191.26 C 188.89 188.16 178.72 186.55 169.82 181.54 C 163.96 178.46 158.14 175.22 153.12 170.87 C 149.78 167.31 144.63 169.43 140.44 169.36 C 144.41 176.32 147.57 183.70 151.39 190.74 C 155.18 191.07 158.96 191.45 162.73 191.87 L 161.43 192.00 L 85.26 192.00 C 83.21 191.52 81.16 190.97 79.05 190.96 C 52.70 190.99 26.35 191.10 0.00 190.90 L 0.00 168.50 C 49.95 168.67 99.89 168.18 149.84 168.42 C 127.68 149.52 115.10 120.10 116.80 91.02 C 117.95 64.33 131.05 38.53 151.77 21.70 C 167.46 8.69 187.40 1.17 207.71 0.00 M 202.49 24.14 C 197.80 23.99 193.36 25.65 189.05 27.27 C 167.48 34.34 149.99 52.39 143.29 74.04 C 139.13 87.50 138.63 102.32 142.92 115.80 C 146.86 131.04 156.63 144.82 169.38 154.05 C 173.20 157.83 178.09 160.47 183.21 162.05 C 195.89 168.42 210.77 169.39 224.64 167.30 C 228.59 168.82 232.87 168.35 237.00 168.32 C 243.68 168.09 250.38 168.31 257.06 167.83 C 253.46 165.06 249.69 162.50 245.78 160.18 C 257.38 154.27 266.98 144.93 274.18 134.17 C 283.82 118.78 287.29 99.69 283.74 81.88 C 280.44 64.70 270.59 48.93 256.71 38.30 C 254.69 36.82 252.70 35.10 250.23 34.46 C 248.02 31.88 244.69 30.75 241.72 29.30 C 229.44 24.20 215.68 21.86 202.49 24.14 Z" />
</g>
<g id="#dbb7abff">
<path fill="#dbb7ab" opacity="1.00" d=" M 464.61 0.00 L 473.33 0.00 C 495.36 1.05 516.95 9.79 533.26 24.67 C 550.49 40.13 561.81 62.02 564.29 85.05 C 567.89 115.97 555.69 148.67 531.59 168.64 C 553.66 168.27 575.75 168.69 597.83 168.43 C 598.25 175.97 597.72 183.52 598.18 191.05 C 559.44 190.94 520.70 191.00 481.97 191.02 C 473.15 191.72 464.31 191.79 455.48 191.24 C 451.63 190.09 447.75 189.03 443.82 188.16 C 437.29 186.70 431.27 183.67 424.91 181.68 C 426.19 185.01 427.63 188.28 429.14 191.51 C 426.60 191.55 424.07 191.80 421.54 192.00 L 341.27 192.00 L 341.16 191.05 C 340.76 183.52 341.28 175.96 340.75 168.43 C 362.66 168.29 384.58 168.28 406.49 168.45 C 383.97 149.52 371.45 119.60 373.34 90.28 C 374.67 64.70 386.92 39.99 406.35 23.32 C 422.43 9.27 443.32 1.08 464.61 0.00 M 416.51 45.80 L 416.50 46.03 C 401.27 61.46 393.94 84.37 397.31 105.78 C 398.31 115.72 401.97 125.49 407.40 133.87 C 409.24 137.67 412.13 140.87 414.83 144.09 C 417.83 147.22 420.68 150.71 424.63 152.69 C 429.37 157.03 434.77 161.06 441.02 162.88 C 453.67 168.28 467.89 169.46 481.39 167.25 C 489.81 169.39 498.68 168.15 507.25 167.73 C 504.69 165.55 501.97 163.57 499.18 161.71 C 518.35 152.88 533.64 135.47 539.06 114.97 C 544.16 96.45 541.52 75.94 531.77 59.38 C 525.95 49.63 518.06 40.78 508.21 35.03 C 496.35 26.61 481.41 23.10 467.00 23.33 C 448.08 23.74 429.48 32.02 416.51 45.80 Z" />
</g>
<g id="#d0a292ff">
<path fill="#d0a292" opacity="1.00" d=" M 721.80 0.00 L 731.22 0.00 C 747.56 0.90 763.71 5.76 777.57 14.51 C 793.67 24.55 806.67 39.47 814.37 56.82 C 822.94 75.88 824.90 97.77 820.08 118.08 C 815.42 137.57 804.90 155.94 789.27 168.66 C 839.84 168.28 890.42 168.61 941.00 168.50 L 941.00 191.00 C 887.34 190.99 833.68 191.00 780.02 190.99 C 763.03 191.23 746.00 190.41 729.04 191.65 C 723.55 191.76 718.07 191.50 712.60 191.36 C 708.84 189.89 704.97 188.81 701.04 187.97 C 694.31 186.50 688.17 183.31 681.76 180.91 C 683.06 184.57 684.61 188.13 686.27 191.64 C 684.36 191.72 682.47 191.89 680.57 192.00 L 598.43 192.00 L 598.18 191.05 C 597.72 183.52 598.25 175.97 597.83 168.43 C 619.94 168.28 642.07 168.30 664.18 168.43 C 646.87 153.70 635.24 132.51 631.98 110.03 C 629.10 90.75 632.21 70.59 640.95 53.15 C 648.84 37.26 661.24 23.67 676.32 14.33 C 689.95 5.77 705.78 1.04 721.80 0.00 M 699.83 28.45 C 697.36 28.89 695.19 30.17 692.95 31.14 C 690.30 32.58 687.81 34.27 685.51 36.21 L 685.51 36.41 C 661.14 52.40 648.97 84.51 656.32 112.68 C 659.73 128.08 668.72 142.57 681.35 152.11 L 681.57 152.68 C 686.24 156.70 691.84 159.29 697.37 161.88 C 706.93 167.06 718.21 168.54 728.99 168.21 C 758.59 167.83 786.41 146.93 795.62 118.91 C 802.06 99.90 800.11 78.23 790.28 60.72 C 784.48 50.41 776.28 41.22 766.14 35.06 C 746.95 22.06 721.23 19.77 699.83 28.45 Z" />
</g>
<g id="#7873717d">
<path fill="#787371" opacity="0.49" d=" M 202.49 24.14 C 215.68 21.86 229.44 24.20 241.72 29.30 C 244.69 30.75 248.02 31.88 250.23 34.46 C 249.59 34.36 248.31 34.17 247.67 34.07 C 243.70 31.79 239.64 29.40 235.03 28.74 C 230.99 28.21 226.91 28.46 222.85 28.38 C 221.05 27.83 219.28 27.21 217.47 26.71 C 212.62 25.18 207.54 24.56 202.49 24.14 Z" />
</g>
<g id="#766d6a80">
<path fill="#766d6a" opacity="0.50" d=" M 416.51 45.80 C 429.48 32.02 448.08 23.74 467.00 23.33 C 481.41 23.10 496.35 26.61 508.21 35.03 C 506.09 34.46 503.94 33.98 501.82 33.44 C 494.10 27.20 483.38 27.09 473.95 27.60 C 469.02 28.19 464.06 28.37 459.11 28.71 C 453.63 29.27 450.13 33.91 446.55 37.54 C 442.79 41.53 437.56 43.73 433.89 47.82 C 430.71 51.35 427.93 55.24 424.49 58.54 C 419.75 63.20 414.71 68.24 413.27 74.99 C 411.86 81.99 411.03 89.12 409.00 95.98 C 407.40 101.17 406.35 106.57 406.48 112.02 C 406.55 117.13 409.27 121.65 411.39 126.13 C 409.96 124.54 408.47 123.02 407.00 121.48 C 406.88 121.65 406.63 122.00 406.51 122.17 C 407.45 126.00 407.72 129.94 407.40 133.87 C 401.97 125.49 398.31 115.72 397.31 105.78 C 398.80 99.28 398.13 92.48 400.19 86.08 C 401.76 78.47 404.96 71.38 407.26 64.00 C 408.92 58.91 412.34 54.72 415.34 50.38 C 416.31 49.14 416.32 47.52 416.50 46.03 L 416.51 45.80 Z" />
</g>
<g id="#554f4c5c">
<path fill="#554f4c" opacity="0.36" d=" M 189.05 27.27 C 193.36 25.65 197.80 23.99 202.49 24.14 C 207.54 24.56 212.62 25.18 217.47 26.71 C 212.60 27.63 207.80 26.26 202.95 26.09 C 197.83 26.75 192.91 28.49 188.00 30.02 C 188.26 29.34 188.79 27.96 189.05 27.27 Z" />
</g>
<g id="#7a757480">
<path fill="#7a7574" opacity="0.50" d=" M 699.83 28.45 C 721.23 19.77 746.95 22.06 766.14 35.06 C 761.76 34.06 757.28 33.69 752.86 32.97 C 750.67 31.56 748.52 29.80 745.83 29.56 C 739.86 28.89 734.01 30.97 728.04 30.70 C 718.54 31.07 709.30 28.14 699.83 28.45 Z" />
<path fill="#7a7574" opacity="0.50" d=" M 406.51 122.17 C 406.63 122.00 406.88 121.65 407.00 121.48 C 408.47 123.02 409.96 124.54 411.39 126.13 C 413.43 129.77 414.37 133.85 415.67 137.77 C 417.42 143.42 421.81 147.61 424.63 152.69 C 420.68 150.71 417.83 147.22 414.83 144.09 C 412.13 140.87 409.24 137.67 407.40 133.87 C 407.72 129.94 407.45 126.00 406.51 122.17 Z" />
</g>
<g id="#3f3b3a44">
<path fill="#3f3b3a" opacity="0.27" d=" M 188.00 30.02 C 192.91 28.49 197.83 26.75 202.95 26.09 C 207.80 26.26 212.60 27.63 217.47 26.71 C 219.28 27.21 221.05 27.83 222.85 28.38 C 217.20 29.23 211.36 29.32 205.95 31.34 C 200.65 33.24 195.20 34.81 190.17 37.39 C 184.64 40.23 181.09 45.56 176.14 49.17 C 173.73 51.05 170.92 52.54 169.04 55.01 C 167.08 58.33 166.90 62.43 164.65 65.61 C 159.28 72.95 154.52 81.04 152.35 89.95 C 150.91 95.08 153.15 100.18 154.78 104.96 C 156.95 110.69 157.31 116.87 158.82 122.77 C 160.00 128.32 162.03 133.65 163.18 139.21 C 159.68 135.66 156.06 131.95 154.64 127.02 C 151.99 118.47 149.70 109.78 148.11 100.96 C 146.36 92.38 152.00 84.56 151.70 76.03 C 151.81 72.41 150.82 68.63 152.11 65.12 C 153.25 61.99 154.27 58.80 155.08 55.56 C 157.66 52.30 159.81 48.71 162.54 45.57 C 165.32 42.37 169.57 41.27 173.17 39.30 C 178.43 36.72 182.78 32.67 188.00 30.02 Z" />
</g>
<g id="#4a47464d">
<path fill="#4a4746" opacity="0.30" d=" M 459.11 28.71 C 464.06 28.37 469.02 28.19 473.95 27.60 C 483.38 27.09 494.10 27.20 501.82 33.44 C 501.01 33.37 499.38 33.24 498.57 33.17 C 490.67 27.84 480.84 29.64 471.89 29.36 C 463.56 29.31 456.85 35.05 450.92 40.22 C 439.51 43.05 430.87 52.34 426.28 62.83 C 419.09 69.54 413.85 78.36 412.30 88.14 C 411.35 94.85 408.00 101.11 408.25 107.99 C 408.23 113.02 408.95 118.14 411.25 122.67 C 413.85 127.84 415.40 133.48 418.35 138.48 C 421.13 143.17 423.00 148.55 427.20 152.25 C 429.60 155.02 432.69 157.03 435.95 158.65 C 437.63 160.07 439.27 161.54 441.02 162.88 C 434.77 161.06 429.37 157.03 424.63 152.69 C 421.81 147.61 417.42 143.42 415.67 137.77 C 414.37 133.85 413.43 129.77 411.39 126.13 C 409.27 121.65 406.55 117.13 406.48 112.02 C 406.35 106.57 407.40 101.17 409.00 95.98 C 411.03 89.12 411.86 81.99 413.27 74.99 C 414.71 68.24 419.75 63.20 424.49 58.54 C 427.93 55.24 430.71 51.35 433.89 47.82 C 437.56 43.73 442.79 41.53 446.55 37.54 C 450.13 33.91 453.63 29.27 459.11 28.71 Z" />
</g>
<g id="#72646080">
<path fill="#726460" opacity="0.50" d=" M 143.29 74.04 C 149.99 52.39 167.48 34.34 189.05 27.27 C 188.79 27.96 188.26 29.34 188.00 30.02 C 182.78 32.67 178.43 36.72 173.17 39.30 C 169.57 41.27 165.32 42.37 162.54 45.57 C 159.81 48.71 157.66 52.30 155.08 55.56 C 153.36 57.37 151.02 58.95 150.56 61.58 C 149.51 66.96 150.69 72.42 150.49 77.84 C 150.23 83.15 147.30 87.82 146.33 92.99 C 145.51 96.95 145.89 101.03 146.48 104.99 C 145.72 104.04 144.93 103.11 144.14 102.18 C 144.43 106.76 144.15 111.36 142.92 115.80 C 138.63 102.32 139.13 87.50 143.29 74.04 Z" />
</g>
<g id="#25242327">
<path fill="#252423" opacity="0.15" d=" M 205.95 31.34 C 211.36 29.32 217.20 29.23 222.85 28.38 C 226.91 28.46 230.99 28.21 235.03 28.74 C 239.64 29.40 243.70 31.79 247.67 34.07 C 242.52 33.73 237.41 33.03 232.25 32.77 C 227.50 32.04 222.80 29.61 217.92 30.83 C 211.33 32.26 204.39 33.62 199.06 38.06 C 191.54 44.04 181.87 47.10 175.49 54.51 C 172.24 58.22 168.35 61.51 166.19 66.05 C 163.18 72.23 158.75 77.92 157.70 84.88 C 156.78 91.01 157.78 97.21 157.43 103.37 C 157.02 109.27 158.96 114.90 160.82 120.39 C 161.72 125.12 162.88 129.83 164.59 134.34 C 167.34 141.86 172.08 148.39 176.55 154.95 C 171.91 154.26 168.42 150.34 167.05 146.04 C 166.48 144.26 165.69 142.49 163.90 141.64 C 163.85 141.61 163.76 141.56 163.71 141.53 C 163.58 140.95 163.31 139.79 163.18 139.21 C 162.03 133.65 160.00 128.32 158.82 122.77 C 157.31 116.87 156.95 110.69 154.78 104.96 C 153.15 100.18 150.91 95.08 152.35 89.95 C 154.52 81.04 159.28 72.95 164.65 65.61 C 166.90 62.43 167.08 58.33 169.04 55.01 C 170.92 52.54 173.73 51.05 176.14 49.17 C 181.09 45.56 184.64 40.23 190.17 37.39 C 195.20 34.81 200.65 33.24 205.95 31.34 Z" />
</g>
<g id="#27262628">
<path fill="#272626" opacity="0.16" d=" M 450.92 40.22 C 456.85 35.05 463.56 29.31 471.89 29.36 C 480.84 29.64 490.67 27.84 498.57 33.17 C 487.69 32.78 476.66 33.43 466.34 37.15 C 461.16 37.99 456.04 39.09 450.92 40.22 Z" />
</g>
<g id="#44424147">
<path fill="#444241" opacity="0.28" d=" M 692.95 31.14 C 695.19 30.17 697.36 28.89 699.83 28.45 C 709.30 28.14 718.54 31.07 728.04 30.70 C 734.01 30.97 739.86 28.89 745.83 29.56 C 748.52 29.80 750.67 31.56 752.86 32.97 C 752.01 32.99 750.31 33.03 749.46 33.06 C 745.25 32.21 740.99 30.72 736.67 31.62 C 730.88 32.80 725.40 35.10 719.68 36.55 C 714.93 37.92 710.01 38.50 705.16 39.36 C 698.16 40.60 692.20 45.68 689.32 52.11 C 690.25 53.80 691.18 55.50 692.13 57.21 C 691.81 58.49 691.43 59.77 691.08 61.05 C 678.82 75.76 673.31 95.33 674.51 114.32 L 674.47 115.71 C 671.58 110.03 668.05 104.33 667.93 97.75 C 668.02 92.23 669.30 86.67 672.04 81.84 C 674.06 78.30 675.68 74.57 677.03 70.73 C 679.25 64.07 685.70 59.81 687.69 53.06 C 687.49 50.02 686.19 47.20 685.40 44.30 C 685.41 41.67 685.51 39.04 685.51 36.41 L 685.51 36.21 C 687.81 34.27 690.30 32.58 692.95 31.14 Z" />
</g>
<g id="#12121213">
<path fill="#121212" opacity="0.07" d=" M 217.92 30.83 C 222.80 29.61 227.50 32.04 232.25 32.77 C 227.21 33.49 222.15 34.11 217.17 35.21 C 198.37 39.74 181.73 52.07 171.42 68.37 C 164.18 80.23 159.88 94.06 160.20 108.02 C 160.33 112.14 160.60 116.26 160.82 120.39 C 158.96 114.90 157.02 109.27 157.43 103.37 C 157.78 97.21 156.78 91.01 157.70 84.88 C 158.75 77.92 163.18 72.23 166.19 66.05 C 168.35 61.51 172.24 58.22 175.49 54.51 C 181.87 47.10 191.54 44.04 199.06 38.06 C 204.39 33.62 211.33 32.26 217.92 30.83 Z" />
</g>
<g id="#25242326">
<path fill="#252423" opacity="0.15" d=" M 736.67 31.62 C 740.99 30.72 745.25 32.21 749.46 33.06 C 734.25 33.42 719.03 37.73 706.51 46.49 C 700.65 50.53 695.89 55.87 691.08 61.05 C 691.43 59.77 691.81 58.49 692.13 57.21 C 691.18 55.50 690.25 53.80 689.32 52.11 C 692.20 45.68 698.16 40.60 705.16 39.36 C 710.01 38.50 714.93 37.92 719.68 36.55 C 725.40 35.10 730.88 32.80 736.67 31.62 Z" />
</g>
<g id="#15151516">
<path fill="#151515" opacity="0.09" d=" M 450.92 40.22 C 456.04 39.09 461.16 37.99 466.34 37.15 C 459.56 40.19 452.74 43.31 446.83 47.87 C 433.84 57.33 424.31 71.28 419.66 86.61 C 414.28 105.09 415.98 125.73 425.22 142.71 C 428.06 148.50 432.29 153.39 435.95 158.65 C 432.69 157.03 429.60 155.02 427.20 152.25 C 423.67 144.19 419.04 136.66 415.57 128.59 C 413.50 120.25 413.30 111.56 413.20 103.00 C 413.04 97.88 415.01 93.05 415.53 88.01 C 415.94 84.71 415.94 81.30 417.07 78.12 C 419.09 72.41 424.20 68.53 426.28 62.83 C 430.87 52.34 439.51 43.05 450.92 40.22 Z" />
</g>
<g id="#70615c80">
<path fill="#70615c" opacity="0.50" d=" M 656.32 112.68 C 648.97 84.51 661.14 52.40 685.51 36.41 C 685.51 39.04 685.41 41.67 685.40 44.30 C 684.62 43.28 683.89 42.25 683.10 41.25 C 677.86 46.11 674.51 52.51 670.21 58.15 C 667.42 63.19 665.24 68.59 663.13 73.95 C 661.21 81.91 658.44 89.77 658.26 98.04 C 658.09 102.97 657.25 107.84 656.32 112.68 Z" />
</g>
<g id="#78726f80">
<path fill="#78726f" opacity="0.50" d=" M 683.10 41.25 C 683.89 42.25 684.62 43.28 685.40 44.30 C 686.19 47.20 687.49 50.02 687.69 53.06 C 685.70 59.81 679.25 64.07 677.03 70.73 C 675.68 74.57 674.06 78.30 672.04 81.84 C 669.30 86.67 668.02 92.23 667.93 97.75 C 668.05 104.33 671.58 110.03 674.47 115.71 C 673.44 128.21 676.67 140.62 681.35 152.11 C 668.72 142.57 659.73 128.08 656.32 112.68 C 657.25 107.84 658.09 102.97 658.26 98.04 C 658.44 89.77 661.21 81.91 663.13 73.95 C 665.24 68.59 667.42 63.19 670.21 58.15 C 674.51 52.51 677.86 46.11 683.10 41.25 Z" />
</g>
<g id="#6f605a80">
<path fill="#6f605a" opacity="0.50" d=" M 397.31 105.78 C 393.94 84.37 401.27 61.46 416.50 46.03 C 416.32 47.52 416.31 49.14 415.34 50.38 C 412.34 54.72 408.92 58.91 407.26 64.00 C 404.96 71.38 401.76 78.47 400.19 86.08 C 398.13 92.48 398.80 99.28 397.31 105.78 Z" />
</g>
<g id="#55514f5a">
<path fill="#55514f" opacity="0.35" d=" M 150.56 61.58 C 151.02 58.95 153.36 57.37 155.08 55.56 C 154.27 58.80 153.25 61.99 152.11 65.12 C 150.82 68.63 151.81 72.41 151.70 76.03 C 152.00 84.56 146.36 92.38 148.11 100.96 C 149.70 109.78 151.99 118.47 154.64 127.02 C 156.06 131.95 159.68 135.66 163.18 139.21 C 163.31 139.79 163.58 140.95 163.71 141.53 C 161.18 140.18 158.36 138.95 156.79 136.41 C 152.79 130.27 150.46 123.16 149.36 115.95 C 148.78 112.21 147.77 108.55 146.48 104.99 C 145.89 101.03 145.51 96.95 146.33 92.99 C 147.30 87.82 150.23 83.15 150.49 77.84 C 150.69 72.42 149.51 66.96 150.56 61.58 Z" />
</g>
<g id="#2827272a">
<path fill="#282727" opacity="0.16" d=" M 412.30 88.14 C 413.85 78.36 419.09 69.54 426.28 62.83 C 424.20 68.53 419.09 72.41 417.07 78.12 C 415.94 81.30 415.94 84.71 415.53 88.01 C 415.01 93.05 413.04 97.88 413.20 103.00 C 413.30 111.56 413.50 120.25 415.57 128.59 C 419.04 136.66 423.67 144.19 427.20 152.25 C 423.00 148.55 421.13 143.17 418.35 138.48 C 415.40 133.48 413.85 127.84 411.25 122.67 C 408.95 118.14 408.23 113.02 408.25 107.99 C 408.00 101.11 411.35 94.85 412.30 88.14 Z" />
</g>
<g id="#776f6d80">
<path fill="#776f6d" opacity="0.50" d=" M 144.14 102.18 C 144.93 103.11 145.72 104.04 146.48 104.99 C 147.77 108.55 148.78 112.21 149.36 115.95 C 150.46 123.16 152.79 130.27 156.79 136.41 C 158.36 138.95 161.18 140.18 163.71 141.53 C 163.76 141.56 163.85 141.61 163.90 141.64 C 164.85 146.12 167.15 150.11 169.38 154.05 C 156.63 144.82 146.86 131.04 142.92 115.80 C 144.15 111.36 144.43 106.76 144.14 102.18 Z" />
</g>
<g id="#4c4c4c4d">
<path fill="#4c4c4c" opacity="0.30" d=" M 674.47 115.71 L 674.51 114.32 C 675.82 123.48 677.77 132.67 681.99 140.99 C 685.70 148.89 691.33 155.65 697.37 161.88 C 691.84 159.29 686.24 156.70 681.57 152.68 L 681.35 152.11 C 676.67 140.62 673.44 128.21 674.47 115.71 Z" />
</g>
<g id="#51515152">
<path fill="#515151" opacity="0.32" d=" M 163.90 141.64 C 165.69 142.49 166.48 144.26 167.05 146.04 C 168.42 150.34 171.91 154.26 176.55 154.95 C 178.66 157.41 180.88 159.79 183.21 162.05 C 178.09 160.47 173.20 157.83 169.38 154.05 C 167.15 150.11 164.85 146.12 163.90 141.64 Z" />
</g>
<g id="#d0a191ff">
<path fill="#d0a191" opacity="1.00" d=" M 224.64 167.30 C 231.99 165.98 239.16 163.64 245.78 160.18 C 249.69 162.50 253.46 165.06 257.06 167.83 C 250.38 168.31 243.68 168.09 237.00 168.32 C 232.87 168.35 228.59 168.82 224.64 167.30 Z" />
</g>
<g id="#d4aa9bff">
<path fill="#d4aa9b" opacity="1.00" d=" M 481.39 167.25 C 487.52 166.15 493.51 164.30 499.18 161.71 C 501.97 163.57 504.69 165.55 507.25 167.73 C 498.68 168.15 489.81 169.39 481.39 167.25 Z" />
</g>
<g id="#d1a494ff">
<path fill="#d1a494" opacity="1.00" d=" M 140.44 169.36 C 144.63 169.43 149.78 167.31 153.12 170.87 C 158.14 175.22 163.96 178.46 169.82 181.54 C 169.42 181.90 168.62 182.61 168.22 182.97 C 169.74 185.79 171.19 188.66 172.55 191.57 C 169.28 191.55 166.00 191.57 162.73 191.87 C 158.96 191.45 155.18 191.07 151.39 190.74 C 147.57 183.70 144.41 176.32 140.44 169.36 Z" />
</g>
<g id="#ca9583ff">
<path fill="#ca9583" opacity="1.00" d=" M 681.76 180.91 C 688.17 183.31 694.31 186.50 701.04 187.97 C 704.97 188.81 708.84 189.89 712.60 191.36 C 703.83 191.79 695.05 191.60 686.27 191.64 C 684.61 188.13 683.06 184.57 681.76 180.91 Z" />
</g>
<g id="#cd9b8aff">
<path fill="#cd9b8a" opacity="1.00" d=" M 168.22 182.97 C 168.62 182.61 169.42 181.90 169.82 181.54 C 178.72 186.55 188.89 188.16 198.50 191.26 C 189.86 191.70 181.20 191.58 172.55 191.57 C 171.19 188.66 169.74 185.79 168.22 182.97 Z" />
</g>
<g id="#d2a596ff">
<path fill="#d2a596" opacity="1.00" d=" M 424.91 181.68 C 431.27 183.67 437.29 186.70 443.82 188.16 C 447.75 189.03 451.63 190.09 455.48 191.24 C 446.71 191.66 437.92 191.60 429.14 191.51 C 427.63 188.28 426.19 185.01 424.91 181.68 Z" />
</g>
<g id="#ad8b80d0">
<path fill="#ad8b80" opacity="0.82" d=" M 0.00 190.90 C 26.35 191.10 52.70 190.99 79.05 190.96 C 81.16 190.97 83.21 191.52 85.26 192.00 L 0.00 192.00 L 0.00 190.90 Z" />
</g>
<g id="#b59185da">
<path fill="#b59185" opacity="0.85" d=" M 162.73 191.87 C 166.00 191.57 169.28 191.55 172.55 191.57 C 181.20 191.58 189.86 191.70 198.50 191.26 C 207.66 191.82 216.84 191.66 225.99 191.00 C 264.38 191.02 302.77 190.92 341.16 191.05 L 341.27 192.00 L 161.43 192.00 L 162.73 191.87 Z" />
</g>
<g id="#ba9b90da">
<path fill="#ba9b90" opacity="0.85" d=" M 421.54 192.00 C 424.07 191.80 426.60 191.55 429.14 191.51 C 437.92 191.60 446.71 191.66 455.48 191.24 C 464.31 191.79 473.15 191.72 481.97 191.02 C 520.70 191.00 559.44 190.94 598.18 191.05 L 598.43 192.00 L 421.54 192.00 Z" />
</g>
<g id="#ae887ad7">
<path fill="#ae887a" opacity="0.84" d=" M 680.57 192.00 C 682.47 191.89 684.36 191.72 686.27 191.64 C 695.05 191.60 703.83 191.79 712.60 191.36 C 718.07 191.50 723.55 191.76 729.04 191.65 C 746.00 190.41 763.03 191.23 780.02 190.99 C 833.68 191.00 887.34 190.99 941.00 191.00 L 941.00 192.00 L 680.57 192.00 Z" />
</g>
</svg>
