<?xml version="1.0" encoding="UTF-8" ?>
<!DOCTYPE svg PUBLIC "-//W3C//DTD SVG 1.1//EN" "http://www.w3.org/Graphics/SVG/1.1/DTD/svg11.dtd">
<svg width="941pt" height="192pt" viewBox="0 0 941 192" version="1.1" xmlns="http://www.w3.org/2000/svg">
<g id="#c76767ff">
<path fill="#c76767" opacity="1.00" d=" M 207.53 0.00 L 217.41 0.00 C 237.69 1.17 257.60 8.68 273.27 21.67 C 292.66 37.44 305.45 61.05 307.88 85.94 C 311.14 116.56 298.97 148.82 275.15 168.60 C 296.98 168.31 318.81 168.65 340.63 168.43 C 340.97 175.97 340.72 183.51 340.91 191.05 C 303.27 191.18 265.64 191.05 228.01 191.12 C 205.88 192.45 183.69 190.93 161.55 192.00 L 85.07 192.00 C 82.75 191.56 80.42 191.10 78.05 191.06 C 52.04 191.16 26.02 191.07 0.00 191.11 L 0.00 168.49 C 49.93 168.65 99.87 168.18 149.80 168.42 C 128.48 150.14 115.93 122.15 116.69 94.05 C 116.99 66.84 129.74 40.17 150.56 22.69 C 166.39 9.12 186.76 1.23 207.53 0.00 M 177.44 32.42 C 164.40 39.61 153.70 50.91 147.24 64.32 C 139.19 80.77 137.85 100.33 143.41 117.76 C 148.27 133.23 158.55 146.89 171.99 155.95 C 175.04 157.94 178.10 160.14 181.74 160.90 C 183.97 163.05 187.09 163.85 189.94 164.86 C 209.75 171.29 232.36 168.69 250.11 157.75 C 261.18 150.93 270.49 141.15 276.71 129.74 C 285.08 114.03 287.27 95.19 282.85 77.95 C 278.62 61.15 268.10 46.03 253.82 36.21 C 252.69 35.50 251.54 34.75 250.22 34.49 C 245.04 30.12 238.35 28.07 232.00 26.03 C 213.91 20.92 193.85 23.22 177.44 32.42 Z" />
<path fill="#c76767" opacity="1.00" d=" M 721.68 0.00 L 731.98 0.00 C 748.28 1.12 764.37 6.02 778.15 14.88 C 795.39 25.80 808.99 42.36 816.29 61.43 C 830.82 98.09 819.87 143.37 789.41 168.64 C 839.94 168.33 890.47 168.59 941.00 168.51 L 941.00 190.95 C 874.68 190.98 808.35 190.92 742.03 190.99 C 722.25 192.49 702.39 190.76 682.59 192.00 L 598.41 192.00 L 598.12 191.23 C 597.64 183.64 598.13 176.03 597.78 168.44 C 619.88 168.28 641.98 168.34 664.08 168.41 C 649.00 155.36 638.09 137.55 633.54 118.12 C 629.07 99.31 630.39 79.15 637.43 61.13 C 644.69 42.34 658.08 26.01 675.03 15.15 C 688.92 6.12 705.20 1.11 721.68 0.00 M 680.26 40.27 C 667.88 50.57 659.11 65.12 655.83 80.89 C 651.67 100.30 655.95 121.33 667.47 137.52 C 675.02 148.05 685.25 156.95 697.29 161.94 C 707.58 167.33 719.54 168.71 731.02 168.18 C 749.52 167.21 767.46 158.63 779.95 144.97 C 792.01 132.44 798.90 115.32 799.34 97.98 C 800.24 73.16 787.33 48.08 766.10 35.06 C 753.79 26.84 738.80 22.86 724.05 23.41 C 708.11 23.94 692.45 30.00 680.26 40.27 Z" />
<path fill="#c76767" opacity="1.00" d=" M 481.32 167.28 C 489.15 165.86 496.77 163.24 503.75 159.40 C 508.73 161.17 512.88 164.54 517.08 167.65 C 510.38 168.01 503.67 167.83 496.97 168.18 C 491.75 168.18 486.38 168.94 481.32 167.28 Z" />
<path fill="#c76767" opacity="1.00" d=" M 402.96 169.31 C 407.01 167.25 409.72 171.31 412.63 173.37 C 419.97 178.87 428.23 183.10 436.89 186.08 C 443.01 188.34 449.55 189.08 455.64 191.43 C 444.33 192.03 433.01 191.44 421.70 191.96 C 418.99 191.43 416.30 190.83 413.60 190.32 C 409.51 183.61 406.21 176.45 402.96 169.31 Z" />
</g>
<g id="#cd7878ff">
<path fill="#cd7878" opacity="1.00" d=" M 464.44 0.00 L 473.50 0.00 C 494.27 1.06 514.66 8.87 530.56 22.32 C 549.30 37.91 561.72 60.88 564.30 85.14 C 567.90 116.03 555.63 148.52 531.73 168.61 C 553.75 168.32 575.77 168.65 597.78 168.44 C 598.13 176.03 597.64 183.64 598.12 191.23 C 560.09 191.13 522.06 191.18 484.03 191.20 C 474.57 191.71 465.10 192.01 455.64 191.43 C 449.55 189.08 443.01 188.34 436.89 186.08 C 428.23 183.10 419.97 178.87 412.63 173.37 C 409.72 171.31 407.01 167.25 402.96 169.31 C 406.21 176.45 409.51 183.61 413.60 190.32 C 416.30 190.83 418.99 191.43 421.70 191.96 L 420.58 192.00 L 340.92 192.00 L 340.91 191.05 C 340.72 183.51 340.97 175.97 340.63 168.43 C 362.54 168.28 384.46 168.33 406.37 168.42 C 384.00 149.40 371.44 119.63 373.34 90.34 C 374.66 64.73 386.91 39.98 406.37 23.30 C 422.40 9.30 443.22 1.13 464.44 0.00 M 443.97 27.81 C 428.28 33.55 414.76 44.93 406.36 59.36 C 398.34 73.02 395.05 89.37 397.10 105.07 C 399.05 120.66 406.29 135.53 417.37 146.67 C 423.45 152.56 430.22 158.32 438.35 161.03 C 439.11 161.84 440.11 162.36 441.11 162.84 C 453.67 168.36 467.87 169.40 481.32 167.28 C 486.38 168.94 491.75 168.18 496.97 168.18 C 503.67 167.83 510.38 168.01 517.08 167.65 C 512.88 164.54 508.73 161.17 503.75 159.40 C 523.81 148.48 538.46 127.79 541.03 104.97 C 544.73 77.95 531.58 49.15 508.17 34.98 C 489.55 22.53 464.90 20.00 443.97 27.81 Z" />
</g>
<g id="#6f545464">
<path fill="#6f5454" opacity="0.39" d=" M 177.44 32.42 C 193.85 23.22 213.91 20.92 232.00 26.03 C 238.35 28.07 245.04 30.12 250.22 34.49 C 235.17 32.00 219.36 33.11 205.34 39.38 C 187.12 47.22 172.32 62.62 165.24 81.15 C 159.06 97.05 158.62 115.06 163.94 131.26 C 167.42 142.41 173.99 152.27 181.74 160.90 C 178.10 160.14 175.04 157.94 171.99 155.95 C 158.55 146.89 148.27 133.23 143.41 117.76 C 137.85 100.33 139.19 80.77 147.24 64.32 C 153.70 50.91 164.40 39.61 177.44 32.42 Z" />
<path fill="#6f5454" opacity="0.39" d=" M 443.97 27.81 C 464.90 20.00 489.55 22.53 508.17 34.98 C 494.36 32.05 479.74 32.75 466.43 37.56 C 447.94 44.11 432.33 58.24 423.97 75.98 C 416.88 90.76 415.02 107.91 418.46 123.91 C 421.32 137.92 428.78 150.56 438.35 161.03 C 430.22 158.32 423.45 152.56 417.37 146.67 C 406.29 135.53 399.05 120.66 397.10 105.07 C 395.05 89.37 398.34 73.02 406.36 59.36 C 414.76 44.93 428.28 33.55 443.97 27.81 Z" />
<path fill="#6f5454" opacity="0.39" d=" M 680.26 40.27 C 692.45 30.00 708.11 23.94 724.05 23.41 C 738.80 22.86 753.79 26.84 766.10 35.06 C 752.57 32.08 738.23 32.70 725.11 37.24 C 707.27 43.29 691.98 56.40 683.20 73.06 C 676.39 85.83 673.47 100.61 674.87 115.01 C 676.37 132.70 684.69 149.52 697.29 161.94 C 685.25 156.95 675.02 148.05 667.47 137.52 C 655.95 121.33 651.67 100.30 655.83 80.89 C 659.11 65.12 667.88 50.57 680.26 40.27 Z" />
</g>
<g id="#9f5858ca">
<path fill="#9f5858" opacity="0.79" d=" M 0.00 191.11 C 26.02 191.07 52.04 191.16 78.05 191.06 C 80.42 191.10 82.75 191.56 85.07 192.00 L 0.00 192.00 L 0.00 191.11 Z" />
<path fill="#9f5858" opacity="0.79" d=" M 161.55 192.00 C 183.69 190.93 205.88 192.45 228.01 191.12 C 265.64 191.05 303.27 191.18 340.91 191.05 L 340.92 192.00 L 161.55 192.00 Z" />
<path fill="#9f5858" opacity="0.79" d=" M 421.70 191.96 C 433.01 191.44 444.33 192.03 455.64 191.43 C 465.10 192.01 474.57 191.71 484.03 191.20 C 522.06 191.18 560.09 191.13 598.12 191.23 L 598.41 192.00 L 420.58 192.00 L 421.70 191.96 Z" />
<path fill="#9f5858" opacity="0.79" d=" M 682.59 192.00 C 702.39 190.76 722.25 192.49 742.03 190.99 C 808.35 190.92 874.68 190.98 941.00 190.95 L 941.00 192.00 L 682.59 192.00 Z" />
</g>
</svg>
