<?xml version="1.0" encoding="UTF-8" ?>
<!DOCTYPE svg PUBLIC "-//W3C//DTD SVG 1.1//EN" "http://www.w3.org/Graphics/SVG/1.1/DTD/svg11.dtd">
<svg width="65pt" height="19pt" viewBox="0 0 65 19" version="1.1" xmlns="http://www.w3.org/2000/svg">
<g id="#ffffffff">
<path fill="#ffffff" opacity="1.00" d=" M 50.66 0.00 L 54.33 0.00 C 57.85 2.46 61.44 4.80 65.00 7.20 L 65.00 11.74 C 61.47 15.03 56.34 16.54 51.64 15.28 C 47.23 14.50 43.30 12.12 38.94 11.27 C 36.08 11.52 33.44 12.80 30.74 13.69 C 34.10 16.67 38.16 18.92 42.75 19.00 L 35.58 19.00 C 33.28 17.29 31.06 14.73 27.94 14.81 C 23.65 14.93 19.82 17.12 16.09 19.00 L 10.69 19.00 C 6.94 17.43 2.68 16.33 0.00 13.04 L 0.00 9.63 C 4.20 7.87 8.14 5.62 11.90 3.07 C 18.64 -0.14 25.55 4.22 32.07 5.76 C 38.37 4.28 44.31 1.42 50.66 0.00 M 36.66 6.56 C 32.69 8.53 28.05 9.10 24.52 11.93 C 27.12 12.96 29.86 12.57 32.25 11.22 C 40.33 7.19 49.33 5.80 57.86 3.14 C 56.03 2.31 54.13 1.20 52.03 1.55 C 46.63 2.13 41.62 4.47 36.66 6.56 M 9.24 6.84 C 13.67 7.24 17.80 8.92 22.10 9.91 C 25.14 9.91 27.76 7.88 30.46 6.69 C 26.23 4.68 21.75 2.82 17.00 2.67 C 14.04 2.85 10.28 3.61 9.24 6.84 M 49.01 7.07 C 49.84 8.65 49.67 11.65 52.12 11.53 C 55.50 11.81 57.39 8.49 58.59 5.85 C 55.35 5.80 52.16 6.35 49.01 7.07 M 59.09 6.99 C 57.62 10.27 54.40 13.61 50.47 12.37 C 48.15 11.99 47.59 9.67 47.37 7.70 C 45.09 8.60 42.82 9.54 40.61 10.61 C 45.75 12.72 51.10 14.93 56.73 15.02 C 59.92 14.38 64.99 12.31 64.09 8.27 C 63.08 6.93 60.27 4.74 59.09 6.99 M 1.11 12.61 C 3.77 16.39 8.92 17.01 13.13 17.89 C 17.92 17.57 22.14 14.91 26.47 13.07 C 22.25 10.64 17.68 13.65 13.23 12.78 C 10.26 12.40 8.64 9.55 6.88 7.47 C 4.46 8.26 -0.07 9.04 1.11 12.61 M 8.53 7.68 C 10.53 12.34 16.78 13.76 20.56 10.37 C 16.63 9.14 12.65 8.02 8.53 7.68 Z" />
</g>
</svg>
