<?xml version="1.0" encoding="UTF-8" ?>
<!DOCTYPE svg PUBLIC "-//W3C//DTD SVG 1.1//EN" "http://www.w3.org/Graphics/SVG/1.1/DTD/svg11.dtd">
<svg width="112pt" height="31pt" viewBox="0 0 112 31" version="1.1" xmlns="http://www.w3.org/2000/svg">
<g id="#000000ff">
<path fill="#000000" opacity="1.00" d=" M 87.59 0.00 L 93.67 0.00 C 98.31 1.37 101.14 5.65 105.50 7.55 C 108.18 8.73 110.58 10.54 112.00 13.15 L 112.00 18.65 C 107.55 24.18 100.41 27.60 93.27 26.67 C 85.87 25.65 78.84 22.89 72.02 19.93 C 70.04 19.15 67.91 18.09 65.74 18.78 C 61.31 19.92 57.11 21.76 52.85 23.38 C 57.76 26.02 62.86 28.27 67.72 31.00 L 64.74 31.00 C 60.48 29.02 56.49 26.44 52.01 24.95 C 49.63 24.13 47.17 25.16 44.87 25.78 C 38.47 27.90 31.88 29.34 25.35 31.00 L 15.58 31.00 C 9.71 29.39 3.72 26.90 0.00 21.83 L 0.00 16.06 C 3.41 12.82 8.08 12.18 12.44 11.08 C 15.46 9.38 17.04 5.76 20.36 4.39 C 28.05 1.05 36.80 2.83 44.37 5.65 C 47.91 6.87 51.19 8.97 54.93 9.53 C 58.54 9.20 61.81 7.44 65.17 6.22 C 72.36 3.25 79.98 1.49 87.59 0.00 M 83.84 2.87 C 75.56 5.39 67.45 8.52 59.62 12.23 C 61.46 13.28 63.30 15.34 65.62 14.56 C 70.72 13.24 75.56 11.07 80.65 9.71 C 87.01 7.77 93.60 6.86 100.14 5.82 C 96.26 0.93 89.26 1.21 83.84 2.87 M 15.62 10.90 C 21.44 12.00 27.35 12.89 32.85 15.19 C 35.03 15.84 37.27 17.31 39.62 16.63 C 44.16 15.29 48.38 13.06 52.54 10.86 C 45.59 7.19 37.90 4.46 30.01 3.94 C 24.70 4.03 17.78 5.33 15.62 10.90 M 84.18 11.98 C 85.99 13.96 86.71 16.47 86.28 19.11 C 88.72 19.22 91.30 19.65 93.64 18.66 C 97.43 17.13 100.22 13.33 100.16 9.18 C 94.69 9.08 89.38 10.46 84.18 11.98 M 95.98 18.99 C 92.16 21.70 86.19 21.66 82.87 18.16 C 81.38 16.62 82.60 14.41 82.66 12.58 C 78.34 14.09 73.84 15.23 69.88 17.58 C 76.20 20.47 82.81 22.72 89.53 24.46 C 96.39 26.28 104.59 24.93 109.41 19.41 C 111.66 16.98 110.97 12.54 108.05 10.96 C 106.43 10.19 104.65 9.85 102.94 9.38 C 100.89 12.74 99.45 16.78 95.98 18.99 M 3.95 14.82 C 1.12 16.11 0.46 20.21 2.57 22.43 C 6.44 27.34 13.03 28.89 18.98 29.28 C 28.38 29.53 37.52 26.37 46.01 22.62 C 43.86 21.30 41.70 19.44 39.04 19.49 C 35.28 19.95 31.77 21.61 27.99 21.94 C 24.41 22.35 20.74 21.27 17.85 19.16 C 15.91 17.65 14.88 15.33 13.36 13.45 C 10.29 12.41 6.79 13.46 3.95 14.82 M 14.88 12.98 C 16.13 15.29 17.50 17.78 19.99 18.94 C 24.95 21.55 30.91 20.36 35.74 18.05 C 29.23 15.00 22.13 12.86 14.88 12.98 M 56.38 13.52 C 51.51 14.96 46.78 16.88 41.95 18.46 C 43.86 19.60 45.77 20.96 48.04 21.23 C 53.06 20.24 57.65 17.78 62.30 15.73 C 60.48 14.74 58.64 12.73 56.38 13.52 Z" />
</g>
</svg>
