<?xml version="1.0" encoding="UTF-8" ?>
<!DOCTYPE svg PUBLIC "-//W3C//DTD SVG 1.1//EN" "http://www.w3.org/Graphics/SVG/1.1/DTD/svg11.dtd">
<svg width="257pt" height="192pt" viewBox="0 0 257 192" version="1.1" xmlns="http://www.w3.org/2000/svg">
<g id="#d5ab9dff">
<path fill="#d5ab9d" opacity="1.00" d=" M 123.75 0.00 L 133.05 0.00 C 153.00 1.06 172.61 8.27 188.21 20.82 C 207.88 36.36 221.04 59.90 223.76 84.85 C 227.40 115.80 215.27 148.65 191.11 168.61 C 213.07 168.35 235.04 168.57 257.00 168.50 L 257.00 191.00 C 218.31 191.02 179.63 190.95 140.94 191.03 C 132.47 191.73 123.97 191.80 115.48 191.28 C 108.66 188.85 101.40 188.00 94.65 185.34 C 85.08 181.97 76.49 176.49 68.14 170.84 C 71.09 178.12 74.82 185.04 78.59 191.93 L 77.60 192.00 L 0.00 192.00 L 0.00 168.36 C 21.92 168.37 43.84 168.27 65.76 168.41 C 44.49 150.08 31.91 122.13 32.70 94.02 C 33.01 67.29 45.32 41.05 65.53 23.59 C 81.56 9.45 102.45 1.19 123.75 0.00 M 119.06 23.75 C 115.86 23.90 112.61 24.28 109.70 25.73 C 108.42 26.08 107.17 26.54 105.92 26.98 L 105.89 27.06 C 83.31 33.99 65.14 53.14 58.76 75.81 C 55.11 88.80 54.82 102.96 58.93 115.88 C 62.88 131.10 72.66 144.77 85.32 154.06 C 89.22 157.76 94.04 160.49 99.20 162.04 C 102.95 164.25 107.26 165.29 111.42 166.43 C 131.19 171.04 152.89 167.20 169.56 155.51 C 181.71 146.91 191.70 134.86 196.71 120.75 C 202.53 104.90 202.55 87.00 196.76 71.14 C 191.77 57.30 182.43 45.10 170.42 36.61 C 168.84 35.53 167.17 34.41 165.19 34.32 L 166.21 34.25 C 162.10 31.62 157.74 29.32 153.04 27.90 C 142.49 23.17 130.44 22.77 119.06 23.75 Z" />
</g>
<g id="#7974727e">
<path fill="#797472" opacity="0.49" d=" M 119.06 23.75 C 130.44 22.77 142.49 23.17 153.04 27.90 C 145.69 28.05 138.19 28.09 131.00 26.27 C 124.01 24.88 116.78 25.11 109.70 25.73 C 112.61 24.28 115.86 23.90 119.06 23.75 Z" />
</g>
<g id="#3f3b3a44">
<path fill="#3f3b3a" opacity="0.27" d=" M 105.92 26.98 C 107.17 26.54 108.42 26.08 109.70 25.73 C 116.78 25.11 124.01 24.88 131.00 26.27 C 138.19 28.09 145.69 28.05 153.04 27.90 C 157.74 29.32 162.10 31.62 166.21 34.25 L 165.19 34.32 C 162.31 34.07 159.46 33.59 156.66 32.85 C 151.79 29.67 145.84 29.56 140.23 29.23 C 134.36 28.96 128.32 28.97 122.74 31.06 C 117.18 33.09 111.43 34.70 106.15 37.43 C 100.66 40.31 97.08 45.59 92.12 49.18 C 89.73 51.06 86.94 52.54 85.07 54.99 C 83.20 58.09 82.99 61.90 81.07 64.97 C 75.29 73.02 69.86 81.79 67.99 91.66 C 67.08 99.14 72.10 105.63 72.87 112.91 C 74.07 121.88 77.04 130.45 79.20 139.20 C 76.89 136.69 74.24 134.43 72.58 131.40 C 70.22 127.18 69.23 122.39 67.97 117.77 C 66.34 111.93 64.95 106.02 63.94 100.04 C 62.77 91.78 67.96 84.29 67.70 76.08 C 67.80 72.42 66.84 68.62 68.13 65.07 C 69.26 61.96 70.28 58.80 71.09 55.58 C 75.16 50.74 77.84 44.10 84.15 41.71 C 91.80 38.55 98.45 33.54 105.20 28.86 C 105.37 28.41 105.72 27.51 105.89 27.06 L 105.92 26.98 Z" />
</g>
<g id="#72646080">
<path fill="#726460" opacity="0.50" d=" M 58.76 75.81 C 65.14 53.14 83.31 33.99 105.89 27.06 C 105.72 27.51 105.37 28.41 105.20 28.86 C 98.45 33.54 91.80 38.55 84.15 41.71 C 77.84 44.10 75.16 50.74 71.09 55.58 C 69.37 57.37 67.02 58.94 66.56 61.55 C 65.52 66.93 66.67 72.41 66.50 77.83 C 66.26 82.87 63.60 87.33 62.50 92.18 C 61.46 96.37 61.85 100.73 62.49 104.95 C 61.72 104.01 60.92 103.10 60.13 102.19 C 60.42 106.79 60.32 111.45 58.93 115.88 C 54.82 102.96 55.11 88.80 58.76 75.81 Z" />
</g>
<g id="#25242326">
<path fill="#252423" opacity="0.15" d=" M 122.74 31.06 C 128.32 28.97 134.36 28.96 140.23 29.23 C 145.84 29.56 151.79 29.67 156.66 32.85 C 153.86 32.82 151.06 32.86 148.26 32.84 C 143.55 32.01 138.84 29.71 133.98 30.83 C 127.61 32.25 120.87 33.49 115.64 37.67 C 110.08 41.96 103.75 45.04 97.91 48.89 C 93.27 51.86 90.03 56.40 86.20 60.26 C 83.28 63.22 81.75 67.14 79.73 70.69 C 77.76 74.19 75.61 77.65 74.50 81.54 C 72.33 88.65 73.85 96.14 73.43 103.43 C 73.06 109.28 75.00 114.87 76.83 120.33 C 78.25 128.05 80.47 135.74 84.47 142.55 C 86.97 146.80 89.73 150.89 92.54 154.95 C 88.97 154.27 86.36 151.66 83.60 149.54 C 82.58 146.78 81.69 143.88 79.78 141.57 C 79.64 140.98 79.35 139.79 79.20 139.20 C 77.04 130.45 74.07 121.88 72.87 112.91 C 72.10 105.63 67.08 99.14 67.99 91.66 C 69.86 81.79 75.29 73.02 81.07 64.97 C 82.99 61.90 83.20 58.09 85.07 54.99 C 86.94 52.54 89.73 51.06 92.12 49.18 C 97.08 45.59 100.66 40.31 106.15 37.43 C 111.43 34.70 117.18 33.09 122.74 31.06 Z" />
</g>
<g id="#12121213">
<path fill="#121212" opacity="0.07" d=" M 133.98 30.83 C 138.84 29.71 143.55 32.01 148.26 32.84 C 139.30 33.84 130.26 35.25 121.96 38.95 C 98.61 48.69 80.92 70.88 77.07 95.94 C 75.60 104.00 76.36 112.21 76.83 120.33 C 75.00 114.87 73.06 109.28 73.43 103.43 C 73.85 96.14 72.33 88.65 74.50 81.54 C 75.61 77.65 77.76 74.19 79.73 70.69 C 81.75 67.14 83.28 63.22 86.20 60.26 C 90.03 56.40 93.27 51.86 97.91 48.89 C 103.75 45.04 110.08 41.96 115.64 37.67 C 120.87 33.49 127.61 32.25 133.98 30.83 Z" />
</g>
<g id="#55514f5a">
<path fill="#55514f" opacity="0.35" d=" M 66.56 61.55 C 67.02 58.94 69.37 57.37 71.09 55.58 C 70.28 58.80 69.26 61.96 68.13 65.07 C 66.84 68.62 67.80 72.42 67.70 76.08 C 67.96 84.29 62.77 91.78 63.94 100.04 C 64.95 106.02 66.34 111.93 67.97 117.77 C 69.23 122.39 70.22 127.18 72.58 131.40 C 74.24 134.43 76.89 136.69 79.20 139.20 C 79.35 139.79 79.64 140.98 79.78 141.57 C 77.21 140.19 74.35 138.93 72.75 136.34 C 68.77 130.24 66.49 123.15 65.37 115.98 C 64.79 112.21 63.79 108.53 62.49 104.95 C 61.85 100.73 61.46 96.37 62.50 92.18 C 63.60 87.33 66.26 82.87 66.50 77.83 C 66.67 72.41 65.52 66.93 66.56 61.55 Z" />
</g>
<g id="#776f6d80">
<path fill="#776f6d" opacity="0.50" d=" M 60.13 102.19 C 60.92 103.10 61.72 104.01 62.49 104.95 C 63.79 108.53 64.79 112.21 65.37 115.98 C 66.49 123.15 68.77 130.24 72.75 136.34 C 74.35 138.93 77.21 140.19 79.78 141.57 C 81.69 143.88 82.58 146.78 83.60 149.54 C 84.15 151.05 84.69 152.57 85.32 154.06 C 72.66 144.77 62.88 131.10 58.93 115.88 C 60.32 111.45 60.42 106.79 60.13 102.19 Z" />
</g>
<g id="#51515152">
<path fill="#515151" opacity="0.32" d=" M 83.60 149.54 C 86.36 151.66 88.97 154.27 92.54 154.95 C 94.66 157.40 96.88 159.77 99.20 162.04 C 94.04 160.49 89.22 157.76 85.32 154.06 C 84.69 152.57 84.15 151.05 83.60 149.54 Z" />
</g>
<g id="#cf9f8fff">
<path fill="#cf9f8f" opacity="1.00" d=" M 68.14 170.84 C 76.49 176.49 85.08 181.97 94.65 185.34 C 101.40 188.00 108.66 188.85 115.48 191.28 C 103.19 191.92 90.86 191.22 78.59 191.93 C 74.82 185.04 71.09 178.12 68.14 170.84 Z" />
</g>
<g id="#b59185da">
<path fill="#b59185" opacity="0.85" d=" M 78.59 191.93 C 90.86 191.22 103.19 191.92 115.48 191.28 C 123.97 191.80 132.47 191.73 140.94 191.03 C 179.63 190.95 218.31 191.02 257.00 191.00 L 257.00 192.00 L 77.60 192.00 L 78.59 191.93 Z" />
</g>
</svg>
