<?xml version="1.0" encoding="UTF-8" ?>
<!DOCTYPE svg PUBLIC "-//W3C//DTD SVG 1.1//EN" "http://www.w3.org/Graphics/SVG/1.1/DTD/svg11.dtd">
<svg width="257pt" height="192pt" viewBox="0 0 257 192" version="1.1" xmlns="http://www.w3.org/2000/svg">
<g id="#dbb7abff">
<path fill="#dbb7ab" opacity="1.00" d=" M 123.45 0.00 L 132.53 0.00 C 152.38 1.04 171.89 8.18 187.45 20.60 C 207.33 36.20 220.61 59.92 223.29 85.07 C 226.90 115.98 214.67 148.61 190.64 168.63 C 212.76 168.32 234.88 168.59 257.00 168.50 L 257.00 191.00 C 218.66 190.94 180.32 190.96 141.98 190.98 C 132.80 191.57 123.60 191.88 114.42 191.15 C 109.81 189.69 105.06 188.76 100.38 187.55 C 94.71 186.11 89.56 183.22 83.90 181.76 C 85.25 185.01 86.72 188.21 88.17 191.41 C 85.62 191.45 83.09 191.73 80.55 192.00 L 0.00 192.00 L 0.00 168.35 C 21.84 168.41 43.68 168.21 65.52 168.46 C 43.94 150.34 31.47 122.09 32.21 93.96 C 32.55 67.59 44.52 41.71 64.27 24.27 C 80.45 9.69 101.73 1.15 123.45 0.00 M 75.22 46.00 L 75.28 46.24 C 60.22 61.68 52.95 84.43 56.30 105.74 C 58.33 124.41 68.93 141.74 83.63 153.27 C 85.75 154.83 87.65 156.94 90.34 157.48 C 90.49 157.65 90.80 157.98 90.95 158.14 C 92.55 159.82 94.85 160.54 97.08 160.89 C 97.28 161.18 97.68 161.78 97.88 162.07 C 111.14 167.94 126.07 169.68 140.35 167.26 C 148.80 169.35 157.67 168.03 166.27 167.79 C 163.76 165.51 160.91 163.67 158.14 161.73 C 180.17 151.68 196.83 130.16 199.90 105.99 C 204.03 78.68 190.89 49.32 167.17 34.99 C 156.44 27.33 143.08 23.86 130.03 23.34 C 109.61 22.58 89.24 31.19 75.22 46.00 Z" />
</g>
<g id="#766e6b80">
<path fill="#766e6b" opacity="0.50" d=" M 75.22 46.00 C 89.24 31.19 109.61 22.58 130.03 23.34 C 143.08 23.86 156.44 27.33 167.17 34.99 C 165.57 34.59 163.97 34.24 162.37 33.86 C 152.86 27.44 140.92 26.55 129.83 27.92 C 125.41 28.57 120.92 28.31 116.50 28.89 C 111.74 30.02 108.91 34.39 105.61 37.61 C 101.65 41.79 96.02 43.95 92.32 48.42 C 89.15 52.20 86.09 56.09 82.53 59.52 C 78.61 63.84 73.79 68.06 72.57 74.03 C 70.91 82.69 69.59 91.45 66.93 99.88 C 65.54 106.09 64.47 112.92 67.04 118.98 C 68.00 121.67 69.61 124.04 71.29 126.33 C 73.68 131.85 75.01 137.83 78.09 143.05 C 80.25 146.63 82.81 150.00 85.93 152.81 C 87.42 154.35 88.87 155.92 90.34 157.48 C 87.65 156.94 85.75 154.83 83.63 153.27 C 68.93 141.74 58.33 124.41 56.30 105.74 C 57.86 100.32 56.91 94.57 58.45 89.15 C 60.01 83.53 61.01 77.71 63.45 72.37 C 65.25 68.32 65.75 63.78 68.02 59.92 C 70.19 55.76 73.21 52.15 75.72 48.21 C 75.61 47.72 75.39 46.74 75.28 46.24 L 75.22 46.00 Z" />
</g>
<g id="#4745454a">
<path fill="#474545" opacity="0.29" d=" M 129.83 27.92 C 140.92 26.55 152.86 27.44 162.37 33.86 C 160.09 33.54 157.81 33.22 155.55 32.78 C 147.99 29.02 139.26 29.23 131.03 29.56 C 123.30 29.74 117.13 34.97 111.52 39.69 C 103.60 42.19 96.29 46.76 91.11 53.30 C 87.23 58.59 84.83 64.89 80.25 69.68 C 74.75 73.79 72.90 80.99 71.47 87.37 C 70.54 94.70 66.60 101.50 67.28 109.04 C 67.15 115.07 69.41 120.71 71.29 126.33 C 69.61 124.04 68.00 121.67 67.04 118.98 C 64.47 112.92 65.54 106.09 66.93 99.88 C 69.59 91.45 70.91 82.69 72.57 74.03 C 73.79 68.06 78.61 63.84 82.53 59.52 C 86.09 56.09 89.15 52.20 92.32 48.42 C 96.02 43.95 101.65 41.79 105.61 37.61 C 108.91 34.39 111.74 30.02 116.50 28.89 C 120.92 28.31 125.41 28.57 129.83 27.92 Z" />
</g>
<g id="#25242426">
<path fill="#252424" opacity="0.15" d=" M 111.52 39.69 C 117.13 34.97 123.30 29.74 131.03 29.56 C 139.26 29.23 147.99 29.02 155.55 32.78 C 145.36 33.15 135.04 33.61 125.36 37.17 C 120.74 37.98 116.13 38.86 111.52 39.69 Z" />
</g>
<g id="#15151516">
<path fill="#151515" opacity="0.09" d=" M 111.52 39.69 C 116.13 38.86 120.74 37.98 125.36 37.17 C 117.63 40.49 110.01 44.22 103.49 49.61 C 86.11 63.58 75.30 85.62 75.65 108.00 C 75.44 123.25 80.37 138.42 89.19 150.82 C 91.67 154.30 94.79 157.27 97.08 160.89 C 94.85 160.54 92.55 159.82 90.95 158.14 C 90.80 157.98 90.49 157.65 90.34 157.48 C 88.87 155.92 87.42 154.35 85.93 152.81 C 85.42 147.95 81.80 144.35 80.10 139.94 C 78.02 134.67 73.93 130.17 73.61 124.29 C 72.32 113.61 70.72 102.43 73.90 91.94 C 74.98 87.59 74.48 82.98 75.84 78.70 C 77.11 75.60 78.82 72.71 80.25 69.68 C 84.83 64.89 87.23 58.59 91.11 53.30 C 96.29 46.76 103.60 42.19 111.52 39.69 Z" />
</g>
<g id="#6f605a80">
<path fill="#6f605a" opacity="0.50" d=" M 56.30 105.74 C 52.95 84.43 60.22 61.68 75.28 46.24 C 75.39 46.74 75.61 47.72 75.72 48.21 C 73.21 52.15 70.19 55.76 68.02 59.92 C 65.75 63.78 65.25 68.32 63.45 72.37 C 61.01 77.71 60.01 83.53 58.45 89.15 C 56.91 94.57 57.86 100.32 56.30 105.74 Z" />
</g>
<g id="#2928272b">
<path fill="#292827" opacity="0.17" d=" M 71.47 87.37 C 72.90 80.99 74.75 73.79 80.25 69.68 C 78.82 72.71 77.11 75.60 75.84 78.70 C 74.48 82.98 74.98 87.59 73.90 91.94 C 70.72 102.43 72.32 113.61 73.61 124.29 C 73.93 130.17 78.02 134.67 80.10 139.94 C 81.80 144.35 85.42 147.95 85.93 152.81 C 82.81 150.00 80.25 146.63 78.09 143.05 C 75.01 137.83 73.68 131.85 71.29 126.33 C 69.41 120.71 67.15 115.07 67.28 109.04 C 66.60 101.50 70.54 94.70 71.47 87.37 Z" />
</g>
<g id="#d4aa9bff">
<path fill="#d4aa9b" opacity="1.00" d=" M 140.35 167.26 C 146.48 166.16 152.47 164.31 158.14 161.73 C 160.91 163.67 163.76 165.51 166.27 167.79 C 157.67 168.03 148.80 169.35 140.35 167.26 Z" />
</g>
<g id="#d2a596ff">
<path fill="#d2a596" opacity="1.00" d=" M 83.90 181.76 C 89.56 183.22 94.71 186.11 100.38 187.55 C 105.06 188.76 109.81 189.69 114.42 191.15 C 105.68 191.58 96.92 191.53 88.17 191.41 C 86.72 188.21 85.25 185.01 83.90 181.76 Z" />
</g>
<g id="#ba9b90da">
<path fill="#ba9b90" opacity="0.85" d=" M 80.55 192.00 C 83.09 191.73 85.62 191.45 88.17 191.41 C 96.92 191.53 105.68 191.58 114.42 191.15 C 123.60 191.88 132.80 191.57 141.98 190.98 C 180.32 190.96 218.66 190.94 257.00 191.00 L 257.00 192.00 L 80.55 192.00 Z" />
</g>
</svg>
