<?xml version="1.0" encoding="UTF-8" ?>
<!DOCTYPE svg PUBLIC "-//W3C//DTD SVG 1.1//EN" "http://www.w3.org/Graphics/SVG/1.1/DTD/svg11.dtd">
<svg width="258pt" height="192pt" viewBox="0 0 258 192" version="1.1" xmlns="http://www.w3.org/2000/svg">
<g id="#d0a292ff">
<path fill="#d0a292" opacity="1.00" d=" M 123.80 0.00 L 133.21 0.00 C 154.53 1.07 175.44 9.28 191.53 23.35 C 209.83 39.09 221.82 61.97 224.15 86.01 C 227.35 116.62 215.25 149.08 191.21 168.66 C 213.46 168.28 235.74 168.61 258.00 168.50 L 258.00 191.00 C 218.97 191.00 179.94 190.94 140.92 191.02 C 132.13 191.84 123.31 191.67 114.50 191.30 C 109.09 188.90 103.16 188.29 97.59 186.39 C 92.86 184.91 88.48 182.55 83.80 180.94 C 84.98 184.59 86.58 188.09 88.25 191.54 C 86.34 191.63 84.44 191.84 82.54 192.00 L 0.00 192.00 L 0.00 168.36 C 22.10 168.39 44.20 168.22 66.30 168.45 C 44.13 149.93 31.65 120.69 33.03 91.89 C 33.93 65.70 46.31 40.24 66.21 23.23 C 82.13 9.34 102.76 1.25 123.80 0.00 M 103.87 27.50 L 104.46 28.23 C 98.08 28.41 92.63 32.40 87.68 36.04 C 71.62 47.04 60.24 64.69 57.19 83.94 C 54.06 102.46 58.40 122.30 69.52 137.51 C 73.25 142.99 77.76 148.36 83.34 152.04 C 87.54 156.87 93.83 159.01 99.37 161.91 C 111.41 168.24 125.71 169.19 139.04 167.59 C 168.68 163.61 194.50 139.52 199.97 110.04 C 205.99 81.68 192.91 50.31 168.18 35.07 C 149.57 22.40 124.97 20.13 103.87 27.50 Z" />
</g>
<g id="#7a757480">
<path fill="#7a7574" opacity="0.50" d=" M 103.87 27.50 C 124.97 20.13 149.57 22.40 168.18 35.07 C 163.72 34.01 159.13 33.73 154.64 32.91 C 150.19 28.61 143.67 29.04 138.06 30.15 C 126.81 32.00 115.63 29.20 104.46 28.23 L 103.87 27.50 Z" />
</g>
<g id="#43424146">
<path fill="#434241" opacity="0.27" d=" M 87.68 36.04 C 92.63 32.40 98.08 28.41 104.46 28.23 C 115.63 29.20 126.81 32.00 138.06 30.15 C 143.67 29.04 150.19 28.61 154.64 32.91 C 153.22 32.90 151.80 32.90 150.39 32.92 C 146.47 32.02 142.43 30.67 138.39 31.67 C 130.21 33.62 122.38 36.98 114.03 38.24 C 109.26 39.04 104.18 39.36 100.03 42.10 C 96.39 44.46 92.93 47.69 91.73 52.00 C 92.26 53.88 93.25 55.57 94.15 57.29 C 93.81 58.56 93.47 59.83 93.07 61.09 C 80.86 75.79 75.20 95.37 76.61 114.35 L 76.31 115.72 C 74.68 111.98 72.68 108.43 70.91 104.75 C 70.22 99.06 69.81 93.10 71.66 87.57 C 72.81 83.97 74.81 80.74 76.46 77.37 C 78.19 73.81 79.20 69.91 81.33 66.54 C 83.82 62.39 87.33 58.89 89.37 54.47 C 90.45 51.85 89.05 49.16 88.26 46.68 C 86.93 43.28 87.62 39.58 87.68 36.04 Z" />
</g>
<g id="#25242326">
<path fill="#252423" opacity="0.15" d=" M 138.39 31.67 C 142.43 30.67 146.47 32.02 150.39 32.92 C 137.28 33.77 124.14 36.84 112.84 43.75 C 105.06 48.03 98.97 54.60 93.07 61.09 C 93.47 59.83 93.81 58.56 94.15 57.29 C 93.25 55.57 92.26 53.88 91.73 52.00 C 92.93 47.69 96.39 44.46 100.03 42.10 C 104.18 39.36 109.26 39.04 114.03 38.24 C 122.38 36.98 130.21 33.62 138.39 31.67 Z" />
</g>
<g id="#766c6980">
<path fill="#766c69" opacity="0.50" d=" M 57.19 83.94 C 60.24 64.69 71.62 47.04 87.68 36.04 C 87.62 39.58 86.93 43.28 88.26 46.68 C 89.05 49.16 90.45 51.85 89.37 54.47 C 87.33 58.89 83.82 62.39 81.33 66.54 C 79.20 69.91 78.19 73.81 76.46 77.37 C 74.81 80.74 72.81 83.97 71.66 87.57 C 69.81 93.10 70.22 99.06 70.91 104.75 C 69.63 104.19 68.35 103.63 67.07 103.07 C 66.69 108.38 66.70 113.71 66.75 119.04 C 66.66 125.33 69.18 131.25 69.52 137.51 C 58.40 122.30 54.06 102.46 57.19 83.94 Z" />
</g>
<g id="#7b787680">
<path fill="#7b7876" opacity="0.50" d=" M 67.07 103.07 C 68.35 103.63 69.63 104.19 70.91 104.75 C 72.68 108.43 74.68 111.98 76.31 115.72 C 75.60 128.18 78.37 140.65 83.34 152.04 C 77.76 148.36 73.25 142.99 69.52 137.51 C 69.18 131.25 66.66 125.33 66.75 119.04 C 66.70 113.71 66.69 108.38 67.07 103.07 Z" />
</g>
<g id="#4c4c4c4d">
<path fill="#4c4c4c" opacity="0.30" d=" M 76.31 115.72 L 76.61 114.35 C 77.53 121.04 78.66 127.75 81.06 134.09 C 84.73 144.75 91.52 153.95 99.37 161.91 C 93.83 159.01 87.54 156.87 83.34 152.04 C 78.37 140.65 75.60 128.18 76.31 115.72 Z" />
</g>
<g id="#ca9583ff">
<path fill="#ca9583" opacity="1.00" d=" M 83.80 180.94 C 88.48 182.55 92.86 184.91 97.59 186.39 C 103.16 188.29 109.09 188.90 114.50 191.30 C 105.76 191.71 97.00 191.59 88.25 191.54 C 86.58 188.09 84.98 184.59 83.80 180.94 Z" />
</g>
<g id="#b18a7cda">
<path fill="#b18a7c" opacity="0.85" d=" M 82.54 192.00 C 84.44 191.84 86.34 191.63 88.25 191.54 C 97.00 191.59 105.76 191.71 114.50 191.30 C 123.31 191.67 132.13 191.84 140.92 191.02 C 179.94 190.94 218.97 191.00 258.00 191.00 L 258.00 192.00 L 82.54 192.00 Z" />
</g>
</svg>
