<?xml version="1.0" encoding="UTF-8" ?>
<!DOCTYPE svg PUBLIC "-//W3C//DTD SVG 1.1//EN" "http://www.w3.org/Graphics/SVG/1.1/DTD/svg11.dtd">
<svg width="256pt" height="192pt" viewBox="0 0 256 192" version="1.1" xmlns="http://www.w3.org/2000/svg">
<g id="#c96c6cff">
<path fill="#c96c6c" opacity="1.00" d=" M 122.56 0.00 L 132.31 0.00 C 152.64 1.16 172.60 8.68 188.31 21.70 C 207.66 37.46 220.43 61.03 222.87 85.88 C 226.15 116.52 213.98 148.83 190.12 168.61 C 212.08 168.36 234.04 168.57 256.00 168.50 L 256.00 190.99 C 218.00 190.90 179.99 190.95 141.99 190.96 C 132.86 191.45 123.72 191.95 114.60 191.15 C 107.95 188.96 100.94 188.14 94.40 185.60 C 83.83 181.62 73.65 176.19 65.26 168.56 C 64.46 168.98 63.67 169.40 62.87 169.82 C 65.53 175.75 68.88 181.31 71.87 187.07 C 72.85 189.03 74.25 190.90 76.43 191.61 L 77.39 192.00 L 0.00 192.00 L 0.00 168.35 C 21.61 168.39 43.22 168.27 64.83 168.42 C 42.44 149.30 29.83 119.44 31.85 90.05 C 33.27 63.48 46.53 37.91 67.27 21.29 C 82.84 8.55 102.52 1.21 122.56 0.00 M 110.44 25.52 C 95.94 28.57 82.79 36.95 73.01 47.97 C 54.45 68.62 49.39 100.56 61.55 125.64 C 66.78 138.46 76.63 149.26 88.16 156.83 C 90.84 158.50 93.49 160.48 96.72 160.90 C 100.46 164.06 105.53 164.97 110.11 166.34 C 128.31 170.66 148.22 167.89 164.31 158.23 C 179.23 149.25 191.24 135.04 196.54 118.35 C 201.32 103.72 201.27 87.55 196.39 72.95 C 191.57 58.37 181.95 45.47 169.43 36.61 C 168.14 35.76 166.82 34.84 165.29 34.49 C 161.68 30.99 156.69 29.48 152.14 27.58 C 138.89 22.89 124.02 21.69 110.44 25.52 Z" />
</g>
<g id="#71585880">
<path fill="#715858" opacity="0.50" d=" M 110.44 25.52 C 124.02 21.69 138.89 22.89 152.14 27.58 C 156.69 29.48 161.68 30.99 165.29 34.49 C 149.25 31.71 132.28 33.31 117.59 40.58 C 100.83 48.62 87.30 63.12 80.47 80.42 C 73.45 97.93 73.47 118.09 80.46 135.61 C 84.07 145.07 89.98 153.41 96.72 160.90 C 93.49 160.48 90.84 158.50 88.16 156.83 C 76.63 149.26 66.78 138.46 61.55 125.64 C 61.82 122.42 61.97 119.18 61.54 115.98 C 60.66 109.26 62.67 102.62 62.49 95.90 C 62.34 88.79 64.61 81.98 67.43 75.55 C 69.44 69.28 72.83 63.63 75.95 57.88 C 78.15 53.90 81.59 50.85 84.45 47.36 C 86.84 44.47 89.42 41.71 92.41 39.42 C 96.37 36.43 99.71 32.64 104.05 30.16 C 106.32 28.80 108.39 27.17 110.44 25.52 Z" />
</g>
<g id="#6a474780">
<path fill="#6a4747" opacity="0.50" d=" M 73.01 47.97 C 82.79 36.95 95.94 28.57 110.44 25.52 C 108.39 27.17 106.32 28.80 104.05 30.16 C 99.71 32.64 96.37 36.43 92.41 39.42 C 89.42 41.71 86.84 44.47 84.45 47.36 C 81.59 50.85 78.15 53.90 75.95 57.88 C 72.83 63.63 69.44 69.28 67.43 75.55 C 64.61 81.98 62.34 88.79 62.49 95.90 C 62.67 102.62 60.66 109.26 61.54 115.98 C 61.97 119.18 61.82 122.42 61.55 125.64 C 49.39 100.56 54.45 68.62 73.01 47.97 Z" />
</g>
<g id="#c46060ff">
<path fill="#c46060" opacity="1.00" d=" M 62.87 169.82 C 63.67 169.40 64.46 168.98 65.26 168.56 C 73.65 176.19 83.83 181.62 94.40 185.60 C 100.94 188.14 107.95 188.96 114.60 191.15 C 101.88 191.74 89.15 191.36 76.43 191.61 C 74.25 190.90 72.85 189.03 71.87 187.07 C 68.88 181.31 65.53 175.75 62.87 169.82 Z" />
</g>
<g id="#ab5b5bda">
<path fill="#ab5b5b" opacity="0.85" d=" M 76.43 191.61 C 89.15 191.36 101.88 191.74 114.60 191.15 C 123.72 191.95 132.86 191.45 141.99 190.96 C 179.99 190.95 218.00 190.90 256.00 190.99 L 256.00 192.00 L 77.39 192.00 L 76.43 191.61 Z" />
</g>
</svg>
