<?xml version="1.0" encoding="UTF-8" ?>
<!DOCTYPE svg PUBLIC "-//W3C//DTD SVG 1.1//EN" "http://www.w3.org/Graphics/SVG/1.1/DTD/svg11.dtd">
<svg width="257pt" height="192pt" viewBox="0 0 257 192" version="1.1" xmlns="http://www.w3.org/2000/svg">
<g id="#cd7878ff">
<path fill="#cd7878" opacity="1.00" d=" M 123.32 0.00 L 132.70 0.00 C 154.14 1.15 175.17 9.50 191.26 23.78 C 209.58 39.74 221.44 62.90 223.50 87.12 C 226.41 117.42 214.07 148.80 190.86 168.60 C 212.90 168.37 234.95 168.55 257.00 168.51 L 257.00 190.93 C 219.68 190.79 182.35 190.91 145.03 190.86 C 134.84 191.18 124.61 192.02 114.43 191.04 C 112.63 190.49 110.87 189.83 109.01 189.52 C 99.81 187.92 90.88 184.76 82.67 180.29 C 76.46 176.64 69.99 173.07 65.25 167.51 C 65.11 168.02 64.83 169.02 64.69 169.52 C 63.98 169.59 62.58 169.74 61.87 169.82 C 64.54 175.23 67.31 180.58 69.91 186.03 C 70.86 187.69 71.63 189.71 73.41 190.67 C 75.78 191.21 78.22 191.31 80.63 191.50 L 79.50 192.00 L 0.00 192.00 L 0.00 168.35 C 20.91 168.39 41.81 168.28 62.72 168.42 C 63.32 168.00 63.92 167.59 64.53 167.18 C 58.34 162.85 53.75 156.61 49.30 150.59 C 35.64 131.14 29.80 106.48 33.05 82.96 C 36.07 59.75 48.09 37.92 65.94 22.81 C 81.86 9.12 102.39 1.16 123.32 0.00 M 110.18 25.47 C 86.18 31.46 65.97 50.47 58.76 74.16 C 53.72 90.48 54.30 108.82 61.51 124.40 C 66.53 137.34 76.24 148.42 87.72 156.20 C 90.78 158.04 93.70 160.47 97.33 161.01 C 98.10 161.83 99.10 162.39 100.12 162.85 C 112.70 168.36 126.91 169.42 140.37 167.26 C 143.66 168.97 147.45 168.17 151.00 168.33 C 159.35 168.10 167.71 168.25 176.06 167.84 C 174.42 165.79 171.98 164.70 169.88 163.20 C 167.61 161.77 165.49 159.79 162.71 159.45 C 178.80 150.53 191.71 135.54 197.20 117.88 C 203.25 99.08 201.16 77.83 191.46 60.61 C 185.60 50.26 177.35 40.98 167.06 34.90 C 150.66 23.74 129.31 20.68 110.18 25.47 Z" />
</g>
<g id="#71585880">
<path fill="#715858" opacity="0.50" d=" M 110.18 25.47 C 129.31 20.68 150.66 23.74 167.06 34.90 C 152.05 31.76 136.10 32.90 121.92 38.87 C 104.94 45.87 90.76 59.36 82.92 75.98 C 75.16 92.19 73.64 111.24 78.56 128.51 C 81.90 140.76 88.81 151.72 97.33 161.01 C 93.70 160.47 90.78 158.04 87.72 156.20 C 76.24 148.42 66.53 137.34 61.51 124.40 C 63.52 118.15 61.43 111.56 62.42 105.18 C 63.02 101.48 63.26 97.73 63.13 93.99 C 62.83 88.97 65.57 84.58 67.03 79.95 C 68.62 75.35 69.54 70.43 72.32 66.33 C 75.40 61.72 77.05 56.12 81.20 52.28 C 83.49 50.19 85.24 47.63 87.23 45.27 C 92.28 40.31 97.26 35.19 103.14 31.19 C 105.91 29.50 108.90 28.21 111.76 26.67 C 111.36 26.37 110.57 25.77 110.18 25.47 Z" />
</g>
<g id="#6b484880">
<path fill="#6b4848" opacity="0.50" d=" M 58.76 74.16 C 65.97 50.47 86.18 31.46 110.18 25.47 C 110.57 25.77 111.36 26.37 111.76 26.67 C 108.90 28.21 105.91 29.50 103.14 31.19 C 97.26 35.19 92.28 40.31 87.23 45.27 C 85.24 47.63 83.49 50.19 81.20 52.28 C 77.05 56.12 75.40 61.72 72.32 66.33 C 69.54 70.43 68.62 75.35 67.03 79.95 C 65.57 84.58 62.83 88.97 63.13 93.99 C 63.26 97.73 63.02 101.48 62.42 105.18 C 61.43 111.56 63.52 118.15 61.51 124.40 C 54.30 108.82 53.72 90.48 58.76 74.16 Z" />
</g>
<g id="#c96d6dff">
<path fill="#c96d6d" opacity="1.00" d=" M 140.37 167.26 C 148.18 165.89 155.73 163.21 162.71 159.45 C 165.49 159.79 167.61 161.77 169.88 163.20 C 171.98 164.70 174.42 165.79 176.06 167.84 C 167.71 168.25 159.35 168.10 151.00 168.33 C 147.45 168.17 143.66 168.97 140.37 167.26 Z" />
<path fill="#c96d6d" opacity="1.00" d=" M 64.69 169.52 C 64.83 169.02 65.11 168.02 65.25 167.51 C 69.99 173.07 76.46 176.64 82.67 180.29 C 82.55 184.41 85.82 187.62 87.15 191.35 C 84.98 191.33 82.80 191.31 80.63 191.50 C 78.22 191.31 75.78 191.21 73.41 190.67 C 71.63 189.71 70.86 187.69 69.91 186.03 C 67.31 180.58 64.54 175.23 61.87 169.82 C 62.58 169.74 63.98 169.59 64.69 169.52 Z" />
</g>
<g id="#c66666ff">
<path fill="#c66666" opacity="1.00" d=" M 87.15 191.35 C 85.82 187.62 82.55 184.41 82.67 180.29 C 90.88 184.76 99.81 187.92 109.01 189.52 C 110.87 189.83 112.63 190.49 114.43 191.04 C 105.35 191.68 96.24 191.32 87.15 191.35 Z" />
</g>
<g id="#af6464da">
<path fill="#af6464" opacity="0.85" d=" M 80.63 191.50 C 82.80 191.31 84.98 191.33 87.15 191.35 C 96.24 191.32 105.35 191.68 114.43 191.04 C 124.61 192.02 134.84 191.18 145.03 190.86 C 182.35 190.91 219.68 190.79 257.00 190.93 L 257.00 192.00 L 79.50 192.00 L 80.63 191.50 Z" />
</g>
</svg>
