<?xml version="1.0" encoding="UTF-8" ?>
<!DOCTYPE svg PUBLIC "-//W3C//DTD SVG 1.1//EN" "http://www.w3.org/Graphics/SVG/1.1/DTD/svg11.dtd">
<svg width="259pt" height="192pt" viewBox="0 0 259 192" version="1.1" xmlns="http://www.w3.org/2000/svg">
<g id="#c56262ff">
<path fill="#c56262" opacity="1.00" d=" M 123.94 0.00 L 133.53 0.00 C 154.75 1.17 175.56 9.36 191.57 23.39 C 210.60 39.76 222.75 63.86 224.41 88.93 C 226.57 118.63 214.49 149.74 191.19 168.63 C 213.79 168.32 236.40 168.59 259.00 168.50 L 259.00 191.00 C 219.66 191.00 180.33 190.98 140.99 191.01 C 132.49 191.87 123.96 191.67 115.43 191.38 C 113.28 190.55 111.13 189.68 108.88 189.18 C 93.94 186.33 79.67 179.68 68.06 169.84 C 66.48 168.16 64.17 168.99 62.21 169.27 C 63.76 173.31 66.23 176.89 68.22 180.71 C 69.95 183.99 71.28 187.50 73.43 190.56 C 77.06 191.23 80.76 191.20 84.42 191.69 L 85.60 192.00 L 0.00 192.00 L 0.00 168.37 C 22.03 168.35 44.05 168.30 66.08 168.40 C 44.20 149.70 31.63 120.74 33.02 91.98 C 33.91 65.28 46.76 39.33 67.32 22.29 C 83.11 8.93 103.33 1.19 123.94 0.00 M 112.30 25.26 C 87.36 30.69 66.36 50.60 59.25 75.07 C 54.39 91.29 55.36 109.26 62.28 124.75 C 69.31 141.19 82.79 155.13 99.36 162.00 C 113.17 168.85 129.50 169.69 144.41 166.60 C 172.54 160.59 195.97 136.45 200.36 107.91 C 205.37 80.10 192.25 49.91 168.15 35.05 C 152.04 24.17 131.14 20.64 112.30 25.26 Z" />
</g>
<g id="#71585880">
<path fill="#715858" opacity="0.50" d=" M 112.30 25.26 C 131.14 20.64 152.04 24.17 168.15 35.05 C 154.36 31.97 139.72 32.69 126.39 37.44 C 110.43 43.04 96.55 54.28 87.67 68.66 C 79.31 82.09 75.39 98.23 76.73 113.99 C 78.04 132.07 86.38 149.40 99.36 162.00 C 82.79 155.13 69.31 141.19 62.28 124.75 C 63.89 118.91 62.08 112.92 63.01 107.02 C 63.95 100.02 63.17 92.83 65.12 85.97 C 68.31 74.84 73.12 64.14 79.57 54.50 C 84.99 47.66 91.00 41.28 97.94 35.96 C 102.06 31.50 107.80 29.23 112.30 25.26 Z" />
</g>
<g id="#6a474780">
<path fill="#6a4747" opacity="0.50" d=" M 59.25 75.07 C 66.36 50.60 87.36 30.69 112.30 25.26 C 107.80 29.23 102.06 31.50 97.94 35.96 C 91.00 41.28 84.99 47.66 79.57 54.50 C 73.12 64.14 68.31 74.84 65.12 85.97 C 63.17 92.83 63.95 100.02 63.01 107.02 C 62.08 112.92 63.89 118.91 62.28 124.75 C 55.36 109.26 54.39 91.29 59.25 75.07 Z" />
</g>
<g id="#c25959ff">
<path fill="#c25959" opacity="1.00" d=" M 62.21 169.27 C 64.17 168.99 66.48 168.16 68.06 169.84 C 79.67 179.68 93.94 186.33 108.88 189.18 C 111.13 189.68 113.28 190.55 115.43 191.38 C 105.10 191.74 94.75 191.49 84.42 191.69 C 80.76 191.20 77.06 191.23 73.43 190.56 C 71.28 187.50 69.95 183.99 68.22 180.71 C 66.23 176.89 63.76 173.31 62.21 169.27 Z" />
</g>
<g id="#a75252da">
<path fill="#a75252" opacity="0.85" d=" M 84.42 191.69 C 94.75 191.49 105.10 191.74 115.43 191.38 C 123.96 191.67 132.49 191.87 140.99 191.01 C 180.33 190.98 219.66 191.00 259.00 191.00 L 259.00 192.00 L 85.60 192.00 L 84.42 191.69 Z" />
</g>
</svg>
