<?xml version="1.0" encoding="UTF-8" ?>
<!DOCTYPE svg PUBLIC "-//W3C//DTD SVG 1.1//EN" "http://www.w3.org/Graphics/SVG/1.1/DTD/svg11.dtd">
<svg width="112pt" height="31pt" viewBox="0 0 112 31" version="1.1" xmlns="http://www.w3.org/2000/svg">
<g id="#f14b13fd">
<path fill="#f14b13" opacity="1.00" d=" M 87.60 0.00 L 93.57 0.00 C 98.52 0.95 100.89 6.00 105.50 7.58 C 108.33 8.55 110.60 10.56 112.00 13.19 L 112.00 18.63 C 107.41 24.45 99.78 27.84 92.39 26.57 C 85.33 25.34 78.55 22.85 72.02 19.94 C 70.03 19.17 67.91 17.93 65.73 18.75 C 61.37 20.02 57.13 21.68 52.91 23.35 C 57.65 26.24 62.96 28.03 67.66 31.00 L 64.74 31.00 C 60.50 28.98 56.45 26.50 52.02 24.92 C 49.63 24.02 47.17 25.18 44.87 25.80 C 38.48 27.98 31.84 29.26 25.33 31.00 L 15.62 31.00 C 9.73 29.38 3.70 26.94 0.00 21.81 L 0.00 16.24 C 3.35 12.36 8.56 12.23 13.11 10.93 C 15.84 8.37 17.90 4.77 21.79 3.81 C 32.10 0.34 42.76 4.76 52.17 8.87 C 55.55 10.66 59.09 8.43 62.30 7.34 C 70.39 3.82 78.96 1.66 87.60 0.00 M 85.37 2.48 C 76.55 4.93 67.99 8.31 59.71 12.19 C 61.57 13.68 63.87 15.59 66.39 14.39 C 77.29 10.50 88.43 7.07 100.01 5.92 C 96.90 1.20 90.28 1.27 85.37 2.48 M 17.71 7.67 C 16.92 8.51 15.31 9.58 16.00 10.93 C 21.14 12.10 26.46 12.62 31.39 14.62 C 33.85 15.35 36.22 16.91 38.83 16.83 C 43.64 15.52 48.13 13.23 52.50 10.88 C 47.75 7.98 42.31 6.47 36.99 4.96 C 30.60 3.20 23.13 3.50 17.71 7.67 M 84.13 12.04 C 86.07 13.93 86.81 16.34 86.22 19.00 C 92.37 21.08 100.78 16.13 99.85 9.29 C 94.47 8.95 89.24 10.55 84.13 12.04 M 97.13 18.12 C 93.30 21.65 86.58 22.03 82.87 18.16 C 81.27 16.64 82.58 14.42 82.75 12.60 C 78.48 14.19 73.75 14.97 69.99 17.65 C 76.28 20.50 82.86 22.71 89.53 24.47 C 96.19 26.24 104.00 24.98 108.95 19.94 C 111.25 17.87 111.31 14.02 109.18 11.82 C 107.55 10.26 105.21 9.84 103.05 9.60 C 100.67 12.12 100.08 16.03 97.13 18.12 M 3.95 14.82 C 1.41 15.99 0.51 19.61 2.15 21.85 C 5.42 26.68 11.49 28.46 16.99 29.12 C 27.02 30.04 36.86 26.62 45.92 22.66 C 43.77 21.01 41.21 19.13 38.35 19.53 C 33.17 20.59 27.87 23.20 22.52 21.46 C 18.24 20.47 15.36 17.08 13.43 13.35 C 10.28 12.52 6.82 13.41 3.95 14.82 M 15.01 13.01 C 16.01 15.43 17.57 17.76 20.00 18.93 C 24.92 21.53 30.94 20.44 35.71 18.03 C 29.26 15.04 22.19 12.83 15.01 13.01 M 56.38 13.48 C 51.57 15.03 46.85 16.86 42.02 18.36 C 44.37 20.22 47.59 22.17 50.59 20.65 C 54.54 19.21 58.43 17.61 62.21 15.79 C 60.52 14.62 58.63 12.71 56.38 13.48 Z" />
</g>
</svg>
