<?xml version="1.0" encoding="UTF-8" ?>
<!DOCTYPE svg PUBLIC "-//W3C//DTD SVG 1.1//EN" "http://www.w3.org/Graphics/SVG/1.1/DTD/svg11.dtd">
<svg width="112pt" height="31pt" viewBox="0 0 112 31" version="1.1" xmlns="http://www.w3.org/2000/svg">
<g id="#ffffffff">
<path fill="#ffffff" opacity="1.00" d=" M 0.00 0.00 L 0.27 0.00 C 0.20 0.07 0.07 0.20 0.00 0.27 L 0.00 0.00 Z" />
<path fill="#ffffff" opacity="1.00" d=" M 87.70 0.00 L 93.53 0.00 C 98.23 1.88 101.51 5.96 106.06 8.11 C 108.43 9.28 110.43 11.06 112.00 13.19 L 112.00 18.31 C 107.74 23.60 101.12 27.19 94.21 26.56 C 86.24 25.71 78.73 22.60 71.43 19.46 C 69.62 18.73 67.65 17.89 65.68 18.53 C 61.13 19.73 56.80 21.65 52.51 23.57 C 57.58 26.06 62.65 28.55 67.75 31.00 L 65.06 31.00 C 60.79 28.84 56.62 26.40 52.11 24.75 C 49.67 23.85 47.14 24.97 44.78 25.58 C 38.98 27.48 32.95 28.65 27.30 31.00 L 25.44 31.00 C 19.23 30.22 12.63 30.69 6.87 27.92 C 4.06 26.43 1.97 23.96 0.00 21.53 L 0.00 16.10 C 3.72 12.96 8.59 12.45 13.02 10.99 C 15.75 8.77 17.72 5.50 21.17 4.27 C 28.67 1.25 36.97 3.18 44.27 5.83 C 47.85 7.04 51.15 9.19 54.92 9.76 C 59.09 9.32 62.83 7.19 66.74 5.83 C 73.48 3.08 80.67 1.80 87.70 0.00 M 81.50 3.35 C 73.96 6.04 66.19 8.43 59.27 12.54 C 61.27 13.52 63.28 15.41 65.68 14.74 C 70.80 13.46 75.63 11.23 80.74 9.90 C 87.18 7.88 93.94 7.24 100.48 5.64 C 95.63 0.24 87.69 1.18 81.50 3.35 M 15.25 10.90 C 20.87 12.16 26.62 12.95 32.00 15.10 C 34.70 15.97 37.54 17.63 40.44 16.57 C 44.74 15.05 49.22 13.45 52.67 10.36 C 45.42 7.32 37.97 4.11 30.00 3.78 C 24.42 3.79 17.81 5.34 15.25 10.90 M 84.02 11.88 C 85.77 14.00 86.72 16.53 86.27 19.30 C 90.16 19.78 94.58 19.47 97.43 16.43 C 99.50 14.57 99.95 11.72 100.40 9.12 C 94.79 8.88 89.31 10.14 84.02 11.88 M 102.30 9.60 C 100.79 13.03 99.20 16.77 95.88 18.85 C 91.97 21.64 85.60 21.49 82.57 17.50 C 82.30 15.85 82.53 14.17 82.58 12.51 C 78.13 13.88 73.54 15.08 69.57 17.62 C 76.25 20.63 83.17 23.20 90.33 24.80 C 96.80 26.33 104.32 24.99 109.05 20.07 C 111.21 18.11 111.42 14.56 109.87 12.19 C 108.17 9.78 104.87 10.13 102.30 9.60 M 3.18 15.14 C 1.07 16.36 0.83 19.23 1.57 21.32 C 3.36 24.98 7.26 27.02 11.03 28.09 C 18.30 30.37 26.09 29.48 33.32 27.50 C 37.84 26.20 42.44 24.82 46.45 22.28 C 43.48 20.83 40.29 18.36 36.81 19.66 C 31.78 21.06 26.27 23.00 21.17 20.78 C 17.45 19.56 15.13 16.23 13.51 12.86 C 10.00 13.09 6.16 12.97 3.18 15.14 M 14.70 13.04 C 16.09 15.58 17.62 18.43 20.56 19.42 C 25.41 21.73 30.77 20.04 35.66 18.84 C 34.77 17.85 33.94 16.68 32.57 16.33 C 26.86 14.20 20.84 12.63 14.70 13.04 M 55.58 13.50 C 50.81 15.06 46.06 16.73 41.48 18.78 C 48.36 23.61 56.39 19.02 62.62 15.39 C 60.45 14.33 58.13 12.38 55.58 13.50 M 11.03 28.09 C 10.48 28.53 10.48 28.53 11.03 28.09 Z" />
</g>
</svg>
