<?xml version="1.0" encoding="UTF-8" ?>
<!DOCTYPE svg PUBLIC "-//W3C//DTD SVG 1.1//EN" "http://www.w3.org/Graphics/SVG/1.1/DTD/svg11.dtd">
<svg width="56pt" height="58pt" viewBox="0 0 56 58" version="1.1" xmlns="http://www.w3.org/2000/svg">
<g id="#d1d1d1ff">
<path fill="#d1d1d1" opacity="1.00" d=" M 21.24 0.00 L 34.69 0.00 C 38.76 3.13 42.16 7.72 42.41 13.00 C 41.95 17.07 40.09 21.26 36.60 23.62 C 34.77 24.95 32.79 26.05 30.87 27.25 C 35.70 29.34 41.09 30.29 45.23 33.77 C 50.60 37.48 53.77 43.45 56.00 49.43 L 56.00 58.00 L 0.00 58.00 L 0.00 49.47 C 2.30 42.98 5.97 36.63 11.97 32.92 C 15.84 30.00 20.70 29.17 25.07 27.31 C 19.65 24.47 13.59 19.92 14.26 13.02 C 13.48 7.58 17.31 3.17 21.24 0.00 M 24.47 3.58 C 22.26 5.31 21.10 8.13 18.61 9.60 C 18.55 10.10 18.45 11.10 18.39 11.60 C 19.34 11.51 20.29 11.42 21.24 11.33 C 21.34 10.16 21.44 8.99 21.55 7.83 C 23.96 7.05 26.34 6.10 28.50 4.76 C 28.67 2.63 25.79 3.81 24.47 3.58 Z" />
</g>
</svg>
