<?xml version="1.0" encoding="UTF-8" ?>
<!DOCTYPE svg PUBLIC "-//W3C//DTD SVG 1.1//EN" "http://www.w3.org/Graphics/SVG/1.1/DTD/svg11.dtd">
<svg width="27pt" height="32pt" viewBox="0 0 27 32" version="1.1" xmlns="http://www.w3.org/2000/svg">
<g id="#d55c33ff">
<path fill="#d55c33" opacity="1.00" d=" M 0.35 16.00 C -1.45 8.28 5.13 0.30 12.99 0.32 C 20.81 -0.26 28.01 7.17 26.80 15.01 C 25.85 22.60 18.25 26.26 13.87 31.73 C 9.06 26.84 2.02 23.15 0.35 16.00 M 11.34 9.19 C 7.82 10.73 7.90 16.22 11.39 17.75 C 15.00 20.01 19.89 15.70 18.26 11.83 C 17.52 8.96 13.80 7.77 11.34 9.19 Z" />
</g>
<g id="#f8dfceff">
<path fill="#f8dfce" opacity="1.00" d=" M 11.34 9.19 C 13.80 7.77 17.52 8.96 18.26 11.83 C 19.89 15.70 15.00 20.01 11.39 17.75 C 7.90 16.22 7.82 10.73 11.34 9.19 Z" />
</g>
</svg>
