<?xml version="1.0" encoding="UTF-8" ?>
<!DOCTYPE svg PUBLIC "-//W3C//DTD SVG 1.1//EN" "http://www.w3.org/Graphics/SVG/1.1/DTD/svg11.dtd">
<svg width="58pt" height="58pt" viewBox="0 0 58 58" version="1.1" xmlns="http://www.w3.org/2000/svg">
<g id="#c5c5c5fe">
<path fill="#c5c5c5" opacity="1.00" d=" M 41.75 0.00 L 47.36 0.00 C 47.46 1.56 47.57 3.12 47.68 4.68 C 44.54 7.86 41.66 11.34 38.09 14.05 C 36.80 15.12 34.34 14.56 34.43 12.61 C 33.27 7.09 38.96 3.92 41.75 0.00 Z" />
<path fill="#c5c5c5" opacity="1.00" d=" M 50.14 9.09 C 51.03 8.18 52.39 8.30 53.54 8.39 C 55.35 10.15 56.58 12.39 58.00 14.46 L 58.00 21.39 C 54.45 30.04 49.49 38.20 42.51 44.52 C 36.69 50.68 29.01 54.45 21.45 58.00 L 14.55 58.00 C 12.45 56.60 10.19 55.36 8.41 53.54 C 8.29 52.39 8.15 51.02 9.07 50.14 C 11.74 47.00 14.85 44.29 17.82 41.45 C 20.55 41.31 24.05 42.53 26.00 39.97 C 30.81 35.12 35.70 30.36 40.45 25.46 C 42.92 23.13 40.13 18.98 42.55 16.59 C 44.94 13.96 47.43 11.39 50.14 9.09 Z" />
<path fill="#c5c5c5" opacity="1.00" d=" M 7.69 34.83 C 9.94 34.07 12.39 34.58 14.73 34.54 C 14.41 36.18 14.67 38.14 13.35 39.40 C 10.40 42.54 7.51 45.88 3.92 48.32 C 2.60 48.18 1.31 47.82 0.00 47.57 L 0.00 41.31 C 2.67 39.27 5.01 36.85 7.69 34.83 Z" />
</g>
</svg>
